<svg xmlns:xlink="http://www.w3.org/1999/xlink" width="300" height="77" viewBox="0 0 300 77" fill="none" xmlns="http://www.w3.org/2000/svg">
<path d="M65.3457 76.806L61.6643 70.25L65.0936 64.6522H62.1686L59.0923 70.1492H59.0419V64.6522H56.2178V76.806H59.0419V70.7543H59.0923L62.1182 76.806H65.3457ZM72.6582 76.806V74.8897H69.5819V64.6522H66.7074V76.806H72.6582ZM74.3728 76.806H77.2474V64.6522H74.3728V76.806ZM88.8465 76.806V64.6522H86.4258V70.8552C86.4258 71.5108 86.4762 72.0656 86.4762 72.0656H86.4258C86.4258 72.0656 86.1736 71.5108 85.8206 70.9056L82.0888 64.6522H79.5672V76.806H81.9879V70.0483C81.9879 69.3927 81.9375 68.7371 81.9375 68.7371H81.9879C81.9879 68.7371 82.24 69.3927 82.6435 69.9979L86.6779 76.806H88.8465ZM91.1663 76.806H94.0408V64.6522H91.1663V76.806ZM105.539 76.806L101.858 70.25L105.287 64.6522H102.362L99.2856 70.1492H99.2352V64.6522H96.4111V76.806H99.2352V70.7543H99.2856L102.311 76.806H105.539ZM113.053 76.806V74.8897H109.725V71.5612H112.65V69.6953H109.725V66.619H113.053V64.7027H106.85V76.8565L113.053 76.806ZM124.249 76.806V64.6522H121.828V70.8552C121.828 71.5108 121.879 72.0656 121.879 72.0656H121.828C121.828 72.0656 121.576 71.5108 121.223 70.9056L117.491 64.6522H114.97V76.806H117.39V70.0483C117.39 69.3927 117.34 68.7371 117.34 68.7371H117.39C117.39 68.7371 117.642 69.3927 118.046 69.9979L122.08 76.806H124.249ZM140.639 76.3522L140.135 74.9401C139.832 75.1418 139.58 75.2427 139.025 75.2427C137.663 75.2427 137.109 73.6793 137.109 72.0656C137.109 70.4518 137.563 68.838 139.025 68.838C139.529 68.838 139.882 68.9388 140.135 69.1406L140.588 67.7789C140.135 67.4259 139.479 67.2242 138.521 67.2242C135.999 67.2242 134.789 69.5944 134.789 72.0656C134.789 74.6375 135.949 76.9069 138.521 76.9069C139.479 76.9069 140.135 76.7052 140.639 76.3522ZM148.556 72.0656C148.556 69.3927 147.497 67.2242 144.875 67.2242C142.253 67.2242 141.194 69.4432 141.194 72.0656C141.194 74.7384 142.253 76.9069 144.875 76.9069C147.497 76.9069 148.556 74.7384 148.556 72.0656ZM146.287 71.9647C146.287 73.5785 146.085 75.2931 144.875 75.2931C143.665 75.2931 143.463 73.5785 143.463 71.9647C143.463 70.3509 143.715 68.6362 144.875 68.6362C146.035 68.6362 146.287 70.3509 146.287 71.9647ZM154.911 76.806V75.2931H152.288V72.6707H154.558V71.2082H152.288V68.7876H154.911V67.2746H150.069V76.7556L154.911 76.806ZM161.517 73.9315C161.517 72.9733 161.265 71.9647 159.45 71.1578C158.643 70.8048 158.189 70.4518 158.189 69.7457C158.189 69.0901 158.592 68.6362 159.349 68.6362C159.903 68.6362 160.458 68.838 160.761 69.0397L161.215 67.6781C160.761 67.3755 160.004 67.1233 158.996 67.1233C157.13 67.1233 156.02 68.4345 156.02 70.0483C156.02 70.9561 156.424 72.0151 157.886 72.6707C158.844 73.0742 159.197 73.4776 159.197 74.0828C159.197 74.7384 158.693 75.1922 157.937 75.1922C157.281 75.1922 156.726 74.9401 156.424 74.7384L155.919 76.3017C156.474 76.6547 157.231 76.8565 158.39 76.8565C160.256 76.9069 161.517 75.6461 161.517 73.9315ZM167.821 68.838V67.325H162.98V76.806H165.199V72.7211H167.468V71.2587H165.199V68.838H167.821ZM174.074 76.806V75.2931H171.452V72.6707H173.721V71.2082H171.452V68.7876H174.074V67.2746H169.233V76.7556L174.074 76.806ZM180.227 76.806V75.2931H177.806V67.325H175.587V76.806H180.227ZM188.498 72.0151C188.498 69.2414 187.338 67.1738 184.211 67.1738C183.051 67.1738 182.143 67.3755 181.488 67.7285V76.3522C182.143 76.7052 183.102 76.9069 184.312 76.9069C187.388 76.9069 188.498 74.7384 188.498 72.0151ZM186.279 71.9647C186.279 74.4358 185.774 75.394 184.413 75.394C184.161 75.394 183.908 75.3435 183.757 75.2931V68.7371C183.959 68.6867 184.11 68.6362 184.413 68.6362C185.724 68.6362 186.279 69.6449 186.279 71.9647ZM200.752 72.0151C200.752 69.2414 199.592 67.1738 196.466 67.1738C195.306 67.1738 194.398 67.3755 193.742 67.7285V76.3522C194.398 76.7052 195.356 76.9069 196.567 76.9069C199.643 76.9069 200.752 74.7384 200.752 72.0151ZM198.483 71.9647C198.483 74.4358 197.979 75.394 196.617 75.394C196.365 75.394 196.113 75.3435 195.961 75.2931V68.7371C196.163 68.6867 196.314 68.6362 196.617 68.6362C197.928 68.6362 198.483 69.6449 198.483 71.9647ZM207.913 65.7113C207.913 65.2574 207.46 64.8539 206.955 64.8539C206.451 64.8539 205.997 65.207 205.997 65.7113C205.997 66.2156 206.401 66.5182 206.955 66.5182C207.46 66.5686 207.913 66.2156 207.913 65.7113ZM205.241 65.7113C205.241 65.2574 204.787 64.8539 204.282 64.8539C203.778 64.8539 203.324 65.207 203.324 65.7113C203.324 66.2156 203.728 66.5182 204.282 66.5182C204.787 66.5686 205.241 66.2156 205.241 65.7113ZM208.821 73.9819V67.325H206.754V73.9819C206.754 74.8392 206.249 75.2427 205.644 75.2427C204.988 75.2427 204.484 74.8392 204.484 73.9819V67.325H202.265V73.9819C202.265 75.7974 203.677 76.9069 205.543 76.9069C207.46 76.9573 208.821 75.7974 208.821 73.9819ZM215.276 76.806V75.2931H212.856V67.325H210.637V76.806H215.276ZM226.119 76.806L225.11 67.325H222.942L221.379 72.6203C221.227 73.175 221.126 73.6793 221.126 73.6793H221.076C221.076 73.6793 220.975 73.175 220.824 72.6203L219.361 67.325H217.193L216.184 76.806H218.05C218.1 76.4026 218.554 71.3595 218.554 71.3595C218.605 70.7543 218.605 70.1996 218.605 70.1996H218.655C218.655 70.1996 218.756 70.7543 218.958 71.3595C218.958 71.3595 220.42 76.4026 220.572 76.806H221.681C221.832 76.3017 223.295 71.3595 223.295 71.3595C223.497 70.7543 223.597 70.1996 223.597 70.1996H223.648C223.648 70.1996 223.648 70.7543 223.698 71.3595C223.698 71.3595 224.152 76.453 224.152 76.806H226.119ZM232.423 76.806V75.2931H229.8V72.6707H232.07V71.2082H229.8V68.7876H232.423V67.2746H227.581V76.7556L232.423 76.806ZM241.097 76.806V67.325H239.231V72.116C239.231 72.6203 239.281 73.0742 239.281 73.0742H239.231C239.231 73.0742 239.029 72.6707 238.727 72.1664L235.802 67.325H233.835V76.806H235.701V71.5612C235.701 71.0569 235.65 70.5526 235.65 70.5526H235.701C235.701 70.5526 235.903 71.0569 236.205 71.5612L239.332 76.8565H241.097V76.806ZM253.805 76.806V67.325H251.94V72.116C251.94 72.6203 251.99 73.0742 251.99 73.0742H251.94C251.94 73.0742 251.738 72.6707 251.435 72.1664L248.51 67.325H246.594V76.806H248.46V71.5612C248.46 71.0569 248.409 70.5526 248.409 70.5526H248.46C248.46 70.5526 248.662 71.0569 248.964 71.5612L252.091 76.8565H253.805V76.806ZM262.681 72.0656C262.681 69.3927 261.622 67.2242 259 67.2242C256.377 67.2242 255.318 69.4432 255.318 72.0656C255.318 74.7384 256.377 76.9069 259 76.9069C261.673 76.9069 262.681 74.7384 262.681 72.0656ZM260.462 71.9647C260.462 73.5785 260.261 75.2931 259.05 75.2931C257.84 75.2931 257.638 73.5785 257.638 71.9647C257.638 70.3509 257.89 68.6362 259.05 68.6362C260.21 68.6362 260.462 70.3509 260.462 71.9647ZM268.834 68.838V67.325H263.286V68.838H264.951V76.806H267.17V68.838H268.834ZM275.087 68.838V67.325H269.54V68.838H271.204V76.806H273.423V68.838H275.087ZM282.954 73.9819V67.325H280.887V73.9819C280.887 74.8392 280.382 75.2427 279.777 75.2427C279.122 75.2427 278.617 74.8392 278.617 73.9819V67.325H276.398V73.9819C276.398 75.7974 277.811 76.9069 279.676 76.9069C281.593 76.9573 282.954 75.7974 282.954 73.9819ZM289.41 76.806V75.2931H286.989V67.325H284.77V76.806H289.41ZM297.932 76.806V67.325H296.066V72.116C296.066 72.6203 296.117 73.0742 296.117 73.0742H296.066C296.066 73.0742 295.865 72.6707 295.562 72.1664L292.637 67.325H290.67V76.806H292.536V71.5612C292.536 71.0569 292.486 70.5526 292.486 70.5526H292.536C292.536 70.5526 292.738 71.0569 293.041 71.5612L296.167 76.8565H297.932V76.806Z" fill="#F08700"/>
<path d="M67.968 46.4467L67.3124 45.1355C66.2534 45.7911 65.043 46.245 63.3284 46.245C58.0331 46.245 55.8142 40.6472 55.8142 34.3433C55.8142 28.2412 57.8314 22.3408 63.3788 22.3408C65.0934 22.3408 66.5055 22.8956 67.3124 23.5007L67.968 22.1895C66.909 21.4331 65.396 20.8279 63.0762 20.8279C57.1758 20.8279 53.5448 26.8796 53.5448 34.3433C53.5448 41.9584 57.2262 47.8588 63.1266 47.8588C65.0934 47.8588 66.909 47.2536 67.968 46.4467ZM88.7959 47.4553V21.1809H86.6274V33.0321H75.1292V21.1809H72.9606V47.4553H75.1292V34.5451H86.6274V47.4553H88.7959ZM110.33 47.4553L100.899 35.9571V35.8563C106.447 36.058 109.826 33.3852 109.826 28.3925C109.826 23.6016 106.901 20.7775 101.555 20.7775C98.9325 20.7775 96.764 21.4835 95.7049 22.1391V47.4049H97.823V34.7972H97.9239L107.758 47.4049H110.33V47.4553ZM107.707 28.4429C107.707 32.5278 105.388 34.7972 100.546 34.7972C99.4872 34.7972 98.3273 34.6459 97.823 34.4946V22.8451C98.6803 22.3913 99.8907 22.1391 101.404 22.1391C105.539 22.1895 107.707 24.1563 107.707 28.4429ZM115.978 47.4553H118.147V21.1809H115.978V47.4553ZM137.058 40.2942C137.058 38.1761 136.251 34.9989 131.006 33.0826C128.586 32.1748 126.216 30.8636 126.216 27.7873C126.216 24.5598 127.981 22.3913 131.158 22.3913C132.973 22.3913 134.537 23.0469 135.444 23.652L136.05 22.24C134.99 21.4835 133.225 20.8783 131.057 20.8783C126.77 20.8783 124.097 24.1059 124.097 27.8378C124.097 30.4097 125.308 33.0826 129.796 34.7972C133.427 36.1588 134.89 37.7222 134.89 40.395C134.89 43.9252 132.671 46.1946 129.241 46.1946C126.972 46.1946 125.56 45.6398 124.501 44.9338L123.795 46.4467C125.106 47.304 126.72 47.8588 129.494 47.8588C133.881 47.8588 137.058 44.7825 137.058 40.2942ZM153.246 22.6938V21.1809H139.983V22.6938H145.531V47.4553H147.699V22.6938H153.246ZM174.226 34.3433C174.226 26.8796 171.654 20.8279 165.098 20.8279C158.592 20.8279 156.02 26.8796 156.02 34.3433C156.02 41.908 158.592 47.8588 165.098 47.8588C171.654 47.8588 174.226 41.908 174.226 34.3433ZM172.057 34.2929C172.057 39.9916 170.897 46.1946 165.098 46.1946C159.399 46.1946 158.189 39.9916 158.189 34.2929C158.189 28.5438 159.55 22.2904 165.098 22.2904C170.645 22.3408 172.057 28.5438 172.057 34.2929ZM194.347 28.5438C194.347 23.9042 191.624 20.8279 185.976 20.8279C183.505 20.8279 181.387 21.4835 180.126 22.24V47.4553H182.244V36.058L183.555 36.1588C191.221 36.8144 194.347 33.0826 194.347 28.5438ZM192.229 28.4429C192.229 32.4774 189.91 35.3015 183.505 34.7468L182.244 34.6459V22.7947C182.849 22.5425 184.06 22.1895 185.724 22.1895C190.212 22.1895 192.229 24.4085 192.229 28.4429ZM215.579 47.4553V21.1809H213.41V33.0321H201.912V21.1809H199.744V47.4553H201.912V34.5451H213.41V47.4553H215.579ZM239.685 34.3433C239.685 26.8796 237.113 20.8279 230.557 20.8279C224.051 20.8279 221.479 26.8796 221.479 34.3433C221.479 41.908 224.051 47.8588 230.557 47.8588C237.113 47.8588 239.685 41.908 239.685 34.3433ZM237.516 34.2929C237.516 39.9916 236.356 46.1946 230.557 46.1946C224.858 46.1946 223.648 39.9916 223.648 34.2929C223.648 28.5438 225.009 22.2904 230.557 22.2904C236.104 22.3408 237.516 28.5438 237.516 34.2929ZM260.311 47.4553L250.88 35.9571V35.8563C256.428 36.058 259.807 33.3852 259.807 28.3925C259.807 23.6016 256.882 20.7775 251.536 20.7775C248.914 20.7775 246.745 21.4835 245.686 22.1391V47.4049H247.804V34.7972H247.905L257.739 47.4049C257.739 47.4553 260.311 47.4553 260.311 47.4553ZM257.689 28.4429C257.689 32.5278 255.369 34.7972 250.527 34.7972C249.468 34.7972 248.308 34.6459 247.804 34.4946V22.8451C248.661 22.3913 249.872 22.1391 251.385 22.1391C255.52 22.1895 257.689 24.1563 257.689 28.4429ZM281.189 40.0924V21.1809H279.222V40.0924C279.222 43.8747 276.55 46.1441 273.574 46.1441C270.599 46.1441 267.926 43.8747 267.926 40.0924V21.1809H265.757V40.0924C265.757 44.2782 268.531 47.8588 273.473 47.8588C278.416 47.9092 281.189 44.2782 281.189 40.0924ZM300 40.2942C300 38.1761 299.193 34.9989 293.948 33.0826C291.528 32.1748 289.157 30.8636 289.157 27.7873C289.157 24.5598 290.922 22.3913 294.1 22.3913C295.915 22.3913 297.478 23.0469 298.386 23.652L298.991 22.24C297.932 21.4835 296.167 20.8783 293.999 20.8783C289.712 20.8783 287.039 24.1059 287.039 27.8378C287.039 30.4097 288.25 33.0826 292.738 34.7972C296.369 36.1588 297.831 37.7222 297.831 40.395C297.831 43.9252 295.612 46.1946 292.183 46.1946C289.914 46.1946 288.502 45.6398 287.443 44.9338L286.737 46.4467C288.048 47.304 289.662 47.8588 292.435 47.8588C296.772 47.8588 300 44.7825 300 40.2942Z" fill="#4B4B4B"/>
<path d="M22.3282 12.5068C25.7575 12.5068 28.5816 9.68272 28.5816 6.25343C28.5816 2.82413 25.7575 0 22.3282 0C18.8989 0 16.0748 2.82413 16.0748 6.25343C16.0748 9.68272 18.8989 12.5068 22.3282 12.5068Z" fill="#C8C8C8"/>
<path d="M23.0343 54.5661L33.776 34.7972L23.4377 16.8439C23.4377 16.8439 22.2778 14.8771 21.1683 16.8439L0.289977 53.2045C0.289977 53.2045 -0.869931 55.1713 1.44988 55.1713H22.7821C22.8325 54.8687 22.9838 54.667 23.0343 54.5661Z" fill="#C8C8C8"/>
<path d="M37.2052 29.9055C39.8276 29.9055 41.9457 27.7874 41.9457 25.165C41.9457 22.5426 39.8276 20.4245 37.2052 20.4245C34.5828 20.4245 32.4647 22.5426 32.4647 25.165C32.4647 27.7369 34.5828 29.9055 37.2052 29.9055Z" fill="#F08700"/>
<path d="M25.7575 57.3902C25.3037 57.3902 24.6985 57.2894 24.4463 56.8859C24.0933 56.2808 24.5976 55.4234 24.5976 55.373L36.0958 34.2929C36.6002 33.3852 37.0036 33.3852 37.1549 33.3852C37.8105 33.3852 38.2644 34.2425 38.3148 34.2929L49.813 55.4234C50.0147 55.8269 50.2669 56.432 50.0147 56.8355C49.6617 57.4407 48.6531 57.4407 48.6531 57.4407L25.7575 57.3902Z" fill="#F08700"/>
</svg>