<?xml version="1.0" encoding="utf-8"?>
<!-- Generator: Adobe Illustrator 14.0.0, SVG Export Plug-In . SVG Version: 6.00 Build 43363)  -->
<!DOCTYPE svg PUBLIC "-//W3C//DTD SVG 1.1//EN" "http://www.w3.org/Graphics/SVG/1.1/DTD/svg11.dtd">
<svg version="1.1" id="Ebene_1" xmlns="http://www.w3.org/2000/svg" xmlns:xlink="http://www.w3.org/1999/xlink" x="0px" y="0px"
	 width="1024px" height="208px" viewBox="0 0 1024 208" enable-background="new 0 0 1024 208" xml:space="preserve">
<polyline fill="none" points="1024,0 0.005,0 0.005,207.497 1024,207.497 1024,0 "/>
<path fill="#67A2C0" d="M168.444,178.251c-11.444-5.445-19.115-9.988-19.115-9.988c-30.869,9.548-69.56,2.789-97.232-17.987
	C10.72,119.258-0.135,60.109,36.35,20.124c2.929-3.206,9.153-8.67,9.153-8.67s-0.012-0.076-0.14-3.516
	c-4.838,3.504-13.669,10.97-18.701,16.461C-15.475,70.271-6.668,141.348,46.056,180.935c43.024,32.301,106.616,35.127,149.111,8.561
	C195.229,189.459,181.456,184.427,168.444,178.251"/>
<path d="M126.058,111.271c-29.951,0-51.029-17.24-51.029-40.995v-1.17c0-23.764,22.081-41.499,51.363-41.499
	c19.911,0,32.966,6.023,41.499,15.061l-14.222,12.544c-6.37-5.856-13.547-9.533-24.099-9.533c-15.055,0-25.271,9.366-25.271,22.752
	v1.844c0,14.052,10.551,22.929,25.271,22.929c10.047,0,17.577-3.182,24.256-9.375l13.724,12.714
	C157.68,106.087,145.136,111.271,126.058,111.271"/>
<path d="M231.13,111.269c-29.106,0-51.035-17.401-51.035-40.995v-1.841c0-23.594,21.929-40.828,51.035-40.828
	c28.79,0,50.871,17.233,50.871,40.828v1.841C282,93.868,259.92,111.269,231.13,111.269 M252.718,67.43
	c0-12.383-7.858-21.752-21.588-21.752c-14.052,0-21.747,9.369-21.747,21.752v3.847c0,12.554,7.695,21.752,21.747,21.752
	c13.729,0,21.588-9.199,21.588-21.752V67.43z"/>
<path d="M359.644,111.101c-12.544,0-22.256-3.847-28.784-11.377v39.32h-28.778V29.447H323.5l2.85,14.222
	c6.017-9.038,18.738-16.063,31.787-16.063c25.101,0,41.334,18.404,41.334,41.162v1.173
	C399.471,92.698,380.393,111.101,359.644,111.101 M370.359,66.764c0-12.888-7.373-21.591-19.418-21.591
	c-11.542,0-19.577,8.871-19.577,22.257v4.856c0,13.386,9.372,21.254,19.577,21.254c12.046,0,19.418-8.372,19.418-21.591V66.764z"/>
<path d="M442.976,72.623v1c0,11.21,8.862,19.911,24.925,19.911c12.38,0,19.911-3.51,27.447-10.047l14.059,12.724
	c-10.381,9.539-23.601,15.061-44.86,15.061c-29.611,0-50.688-17.404-50.688-40.833v-1.17c0-22.922,19.576-41.66,50.032-41.66
	c30.778,0,47.693,18.577,47.693,41.155v3.859H442.976 M485.137,62.577c0-8.196-8.363-16.896-21.083-16.896
	c-13.049,0-20.908,8.035-20.908,16.896v0.337h41.991V62.577z"/>
<path d="M561.118,67.934v41.827h-29.465V29.447h25.939l0.827,20.078c6.357-17.395,18.415-23.925,39.833-20.078l-1.677,25.098
	C572.313,48.859,561.118,57.055,561.118,67.934"/>
<path d="M615.149,29.45h29.623v80.317h-29.623V29.45z M616.158,0h27.605v18.57h-27.605V0z"/>
<path d="M715.882,111.269c-29.124,0-51.028-17.401-51.028-40.995v-1.841c0-23.594,21.904-40.828,51.028-40.828
	c28.772,0,50.858,17.233,50.858,40.828v1.841C766.74,93.868,744.654,111.269,715.882,111.269 M737.471,67.43
	c0-12.383-7.877-21.752-21.589-21.752c-14.052,0-21.746,9.369-21.746,21.752v3.847c0,12.554,7.694,21.752,21.746,21.752
	c13.712,0,21.589-9.199,21.589-21.752V67.43z"/>
<path d="M853.251,109.765V61.072c0-9.542-4.521-15.225-14.392-15.225c-11.706,0-22.415,11.377-22.415,24.092v39.825h-29.623V29.45
	h25.94l0.839,21.415c10.04-16.401,23.266-23.089,40.161-23.089c19.741,0,29.112,12.377,29.112,29.948v52.041H853.251"/>
<path d="M302.124,177.89v-0.088c0-6.601,5.154-12.21,11.985-12.21c4.431,0,7.184,1.856,9.359,4.157l-2.303,2.446
	c-1.854-1.948-3.932-3.528-7.105-3.528c-4.747,0-8.363,4.026-8.363,9.043v0.092c0,5.063,3.701,9.092,8.588,9.092
	c2.99,0,5.293-1.495,7.147-3.488l2.212,2.085c-2.352,2.619-5.154,4.516-9.536,4.516C307.278,190.006,302.124,184.444,302.124,177.89
	"/>
<path d="M327.857,177.89v-0.088c0-6.601,5.148-12.21,12.204-12.21c7.008,0,12.162,5.516,12.162,12.118v0.092
	c0,6.598-5.208,12.204-12.259,12.204C332.962,190.006,327.857,184.493,327.857,177.89 M348.649,177.89v-0.088
	c0-5.021-3.756-9.135-8.685-9.135c-5.057,0-8.539,4.114-8.539,9.043v0.092c0,5.017,3.708,9.092,8.636,9.092
	C345.124,186.894,348.649,182.818,348.649,177.89"/>
<path d="M359.091,166.09h3.477v4.072c1.538-2.535,3.98-4.57,7.998-4.57c5.658,0,8.958,3.798,8.958,9.359v14.514h-3.482v-13.653
	c0-4.337-2.358-7.057-6.46-7.057c-4.023,0-7.014,2.941-7.014,7.323v13.387h-3.477V166.09"/>
<path d="M388.835,169.165h-3.215v-3.033h3.215V164.1c0-2.665,0.729-4.701,2.036-6.015c1.173-1.176,2.893-1.811,5.014-1.811
	c1.629,0,2.711,0.182,3.841,0.593v3.029c-1.264-0.361-2.212-0.59-3.385-0.59c-2.717,0-4.072,1.629-4.072,4.972v1.905h7.415v2.981
	h-7.366v20.3h-3.483V169.165"/>
<path d="M404.795,160.979h3.969v-3.838h-3.969V160.979z M405.021,189.465h3.476V166.09h-3.476V189.465z"/>
<path d="M415.814,177.844v-0.088c0-7.643,5.567-12.164,11.165-12.164c4.346,0,7.147,2.352,8.959,4.978V156.46h3.476v33.005h-3.476
	v-4.701c-1.896,2.799-4.662,5.199-8.959,5.199C421.381,189.963,415.814,185.532,415.814,177.844 M436.071,177.802v-0.095
	c0-5.375-4.108-8.991-8.454-8.991c-4.521,0-8.229,3.339-8.229,8.991v0.095c0,5.513,3.805,9.044,8.229,9.044
	C431.963,186.846,436.071,183.184,436.071,177.802"/>
<path d="M458.085,186.979c3.209,0,5.476-1.313,7.373-3.3l2.169,1.945c-2.346,2.625-5.202,4.382-9.633,4.382
	c-6.412,0-11.664-4.923-11.664-12.207c0-6.783,4.747-12.204,11.213-12.204c6.911,0,10.897,5.516,10.897,12.383
	c0,0.319,0,0.681-0.042,1.222h-18.537C450.354,184.129,453.971,186.979,458.085,186.979 M464.911,176.397
	c-0.401-4.248-2.845-7.864-7.458-7.864c-4.023,0-7.099,3.349-7.591,7.864H464.911z"/>
<path d="M475.127,166.09h3.477v4.072c1.538-2.535,3.981-4.57,8.004-4.57c5.652,0,8.953,3.798,8.953,9.359v14.514h-3.489v-13.653
	c0-4.337-2.346-7.057-6.46-7.057c-4.023,0-7.008,2.941-7.008,7.323v13.387h-3.477V166.09"/>
<path d="M502.112,177.89v-0.088c0-6.601,5.153-12.21,11.985-12.21c4.425,0,7.184,1.856,9.348,4.157l-2.304,2.446
	c-1.854-1.948-3.933-3.528-7.093-3.528c-4.746,0-8.363,4.026-8.363,9.043v0.092c0,5.063,3.708,9.092,8.588,9.092
	c2.984,0,5.288-1.495,7.148-3.488l2.212,2.085c-2.353,2.619-5.154,4.516-9.536,4.516
	C507.266,190.006,502.112,184.444,502.112,177.89"/>
<path d="M539.603,186.979c3.197,0,5.471-1.313,7.354-3.3l2.176,1.945c-2.358,2.625-5.202,4.382-9.627,4.382
	c-6.418,0-11.657-4.923-11.657-12.207c0-6.783,4.74-12.204,11.207-12.204c6.904,0,10.892,5.516,10.892,12.383
	c0,0.319,0,0.681-0.049,1.222h-18.524C531.86,184.129,535.482,186.979,539.603,186.979 M546.422,176.397
	c-0.413-4.248-2.844-7.864-7.463-7.864c-4.012,0-7.099,3.349-7.585,7.864H546.422z"/>
<path d="M572.01,183.271v-14.109h-3.258v-3.069h3.258v-7.057h3.477v7.057h7.414v3.069h-7.414v13.653c0,2.851,1.592,3.89,3.938,3.89
	c1.167,0,2.163-0.225,3.391-0.814v2.984c-1.228,0.639-2.54,0.997-4.205,0.997C574.854,189.872,572.01,188.019,572.01,183.271"/>
<path d="M589.635,156.46h3.477v13.696c1.544-2.532,3.975-4.562,8.011-4.562c5.652,0,8.946,3.795,8.946,9.354v14.511h-3.477v-13.651
	c0-4.339-2.358-7.05-6.467-7.05c-4.023,0-7.014,2.936-7.014,7.324v13.377h-3.477V156.46"/>
<path d="M618.066,166.09h3.477v6.105c1.727-3.891,5.117-6.689,9.542-6.51v3.753h-0.267c-5.105,0-9.275,3.659-9.275,10.712v9.314
	h-3.477V166.09"/>
<path d="M634.525,177.89v-0.088c0-6.601,5.154-12.21,12.204-12.21c7.001,0,12.155,5.516,12.155,12.118v0.092
	c0,6.598-5.19,12.204-12.24,12.204C639.631,190.006,634.525,184.493,634.525,177.89 M655.312,177.89v-0.088
	c0-5.021-3.744-9.135-8.667-9.135c-5.069,0-8.546,4.114-8.546,9.043v0.092c0,5.017,3.695,9.092,8.631,9.092
	C651.798,186.894,655.312,182.818,655.312,177.89"/>
<path d="M665.4,180.604V166.09h3.477v13.656c0,4.337,2.358,7.051,6.467,7.051c3.975,0,7.014-2.938,7.014-7.327v-13.38h3.428v23.375
	h-3.428v-4.066c-1.593,2.528-3.987,4.564-8.011,4.564C668.694,189.963,665.4,186.165,665.4,180.604"/>
<path d="M693.93,193.537l1.567-2.717c2.675,1.944,5.665,2.984,9.008,2.984c5.142,0,8.484-2.845,8.484-8.314v-2.766
	c-2.018,2.717-4.875,4.929-9.165,4.929c-5.616,0-10.989-4.199-10.989-10.939v-0.085c0-6.829,5.434-11.037,10.989-11.037
	c4.388,0,7.232,2.173,9.128,4.707v-4.209h3.477v19.309c0,3.61-1.081,6.37-2.978,8.266c-2.079,2.091-5.203,3.124-8.898,3.124
	C700.663,196.788,697.041,195.707,693.93,193.537 M713.086,176.671v-0.094c0-4.793-4.157-7.91-8.581-7.91
	c-4.425,0-8.096,3.075-8.096,7.867v0.095c0,4.698,3.743,7.952,8.096,7.952C708.929,184.581,713.086,181.369,713.086,176.671"/>
<path d="M724.792,156.46h3.488v13.696c1.532-2.532,3.976-4.562,7.999-4.562c5.652,0,8.946,3.795,8.946,9.354v14.511h-3.477v-13.651
	c0-4.339-2.346-7.05-6.467-7.05c-4.023,0-7.002,2.936-7.002,7.324v13.377h-3.488V156.46"/>
<path d="M767.373,166.09h3.477v4.704c1.908-2.808,4.655-5.202,8.958-5.202c5.604,0,11.159,4.431,11.159,12.115v0.095
	c0,7.646-5.507,12.161-11.159,12.161c-4.339,0-7.147-2.352-8.958-4.975v11.715h-3.477V166.09 M787.405,177.844v-0.085
	c0-5.521-3.793-9.043-8.229-9.043c-4.34,0-8.448,3.658-8.448,8.991v0.095c0,5.428,4.108,9.044,8.448,9.044
	C783.697,186.846,787.405,183.496,787.405,177.844"/>
<path d="M796.218,182.685v-0.094c0-5.014,4.06-7.64,9.992-7.64c2.978,0,5.068,0.41,7.147,0.994v-0.721
	c0-4.157-2.541-6.33-6.929-6.33c-2.747,0-4.923,0.678-7.087,1.675l-1.045-2.851c2.576-1.176,5.068-1.993,8.496-1.993
	c3.307,0,5.884,0.908,7.549,2.583c1.629,1.625,2.443,3.883,2.443,6.87v14.28h-3.428v-3.477c-1.629,2.078-4.304,3.975-8.424,3.975
	C800.558,189.957,796.218,187.478,796.218,182.685 M813.394,180.874v-2.173c-1.714-0.489-3.975-0.994-6.819-0.994
	c-4.34,0-6.831,1.905-6.831,4.704v0.095c0,2.936,2.71,4.655,5.871,4.655C809.917,187.161,813.394,184.584,813.394,180.874"/>
<path d="M824.747,166.09h3.477v6.105c1.726-3.891,5.104-6.689,9.529-6.51v3.753h-0.268c-5.104,0-9.262,3.659-9.262,10.712v9.314
	h-3.477V166.09"/>
<path d="M844.852,183.271v-14.109h-3.245v-3.069h3.245v-7.057h3.489v7.057h7.402v3.069h-7.402v13.653c0,2.851,1.58,3.89,3.926,3.89
	c1.18,0,2.176-0.225,3.392-0.814v2.984c-1.216,0.639-2.528,0.997-4.206,0.997C847.709,189.872,844.852,188.019,844.852,183.271"/>
<path d="M862.489,166.09h3.489v4.072c1.531-2.535,3.963-4.57,7.986-4.57c5.652,0,8.958,3.798,8.958,9.359v14.514h-3.477v-13.653
	c0-4.337-2.358-7.057-6.467-7.057c-4.023,0-7.001,2.941-7.001,7.323v13.387h-3.489V166.09"/>
<path d="M901.168,186.979c3.197,0,5.446-1.313,7.33-3.3l2.151,1.945c-2.334,2.625-5.166,4.382-9.566,4.382
	c-6.381,0-11.608-4.923-11.608-12.207c0-6.783,4.729-12.204,11.159-12.204c6.868,0,10.83,5.516,10.83,12.383
	c0,0.319,0,0.681-0.048,1.222H893C893.486,184.129,897.084,186.979,901.168,186.979 M907.963,176.397
	c-0.413-4.248-2.832-7.864-7.427-7.864c-3.987,0-7.05,3.349-7.536,7.864H907.963z"/>
<path d="M918.113,166.09h3.464v6.105c1.714-3.891,5.081-6.689,9.481-6.51v3.753h-0.268c-5.081,0-9.214,3.659-9.214,10.712v9.314
	h-3.464V166.09"/>
<path d="M934.973,186.48l1.751-2.488c2.516,1.905,5.3,2.986,8.047,2.986c2.771,0,4.801-1.446,4.801-3.71v-0.085
	c0-2.353-2.734-3.255-5.786-4.115c-3.646-1.045-7.694-2.31-7.694-6.604v-0.094c0-4.021,3.331-6.688,7.913-6.688
	c2.833,0,5.981,0.997,8.352,2.577l-1.568,2.625c-2.164-1.406-4.631-2.267-6.88-2.267c-2.735,0-4.485,1.452-4.485,3.395v0.091
	c0,2.216,2.868,3.075,5.969,4.021c3.598,1.091,7.463,2.492,7.463,6.698v0.088c0,4.434-3.635,7.011-8.266,7.011
	C941.257,189.921,937.574,188.607,934.973,186.48"/>
<path d="M959.867,156.46h3.465v13.696c1.531-2.532,3.95-4.562,7.949-4.562c5.628,0,8.898,3.795,8.898,9.354v14.511h-3.453v-13.651
	c0-4.339-2.333-7.05-6.43-7.05c-3.999,0-6.965,2.936-6.965,7.324v13.377h-3.465V156.46"/>
<path d="M988.227,157.141h3.95v3.838h-3.95V157.141z M988.457,166.09h3.452v23.375h-3.452V166.09z"/>
<path d="M1000.54,166.09h3.464v4.704c1.884-2.808,4.631-5.202,8.897-5.202c5.567,0,11.099,4.431,11.099,12.115v0.095
	c0,7.646-5.482,12.161-11.099,12.161c-4.314,0-7.099-2.352-8.897-4.975v11.715h-3.464V166.09 M1020.45,177.844v-0.085
	c0-5.521-3.78-9.043-8.181-9.043c-4.315,0-8.399,3.658-8.399,8.991v0.095c0,5.428,4.084,9.044,8.399,9.044
	C1016.768,186.846,1020.45,183.496,1020.45,177.844"/>
</svg>
