<?xml version="1.0" encoding="UTF-8" standalone="no"?>
<svg
   xmlns:dc="http://purl.org/dc/elements/1.1/"
   xmlns:cc="http://creativecommons.org/ns#"
   xmlns:rdf="http://www.w3.org/1999/02/22-rdf-syntax-ns#"
   xmlns:svg="http://www.w3.org/2000/svg"
   xmlns="http://www.w3.org/2000/svg"
   version="1.1"
   id="svg5237"
   viewBox="0 0 500.00001 123.17704"
   height="34.763298mm"
   width="141.11111mm">
  <defs
     id="defs5239">
    <clipPath
       id="clipPath4579"
       clipPathUnits="userSpaceOnUse">
      <path
         id="path4581"
         d="m 30.805,31.447 107.716,0 0,27.028 -107.716,0 0,-27.028 z" />
    </clipPath>
    <clipPath
       id="clipPath4563"
       clipPathUnits="userSpaceOnUse">
      <path
         id="path4565"
         d="m 30.805,31.447 107.49,0 0,27.028 -107.49,0 0,-27.028 z" />
    </clipPath>
    <clipPath
       id="clipPath4545"
       clipPathUnits="userSpaceOnUse">
      <path
         id="path4547"
         d="m 30.805,31.447 107.716,0 0,27.028 -107.716,0 0,-27.028 z" />
    </clipPath>
  </defs>
  <metadata
     id="metadata5242">
    <rdf:RDF>
      <cc:Work
         rdf:about="">
        <dc:format>image/svg+xml</dc:format>
        <dc:type
           rdf:resource="http://purl.org/dc/dcmitype/StillImage" />
        <dc:title></dc:title>
      </cc:Work>
    </rdf:RDF>
  </metadata>
  <g
     transform="translate(3.549e-6,-929.18516)"
     id="layer1">
    <path
       d="m 382.75418,940.47268 c -5.51677,0 -7.70767,4.25154 -7.70767,7.62394 l -0.0233,21.48098 c 0,5.80052 4.1492,8.41006 7.60068,8.41006 l 20.66696,0 c 5.80052,0 8.80544,-4.35388 8.80544,-7.80535 l 0,-21.0856 c 0,-5.80052 -4.24224,-8.61938 -7.68906,-8.61938 -2.29323,0 -10.4428,0.0233 -15.97817,0.0233 -2.76769,0 -4.88416,-0.005 -5.2842,-0.0233 -0.13489,-0.005 -0.26514,-0.005 -0.39073,-0.005 m 8.0984,28.35602 c -2.19555,0 -2.9491,-0.76751 -2.9491,-2.9491 l 0,-13.52679 c 0,-2.19089 0.0605,-2.9491 2.24671,-2.9491 l 5.87494,0 c 2.19555,0 2.9491,0.76751 2.9491,2.9491 l 0,13.52679 c 0,2.19089 -0.76751,2.9491 -2.9491,2.9491 l -5.17255,0"
       style="fill:#000000;fill-opacity:1;fill-rule:nonzero;stroke:none"
       id="path4551" />
    <path
       d="m 291.15065,1000.0803 c -5.51212,0 -7.70767,4.2562 -7.70767,7.6239 l -0.0186,21.4764 c 0,5.8005 4.14921,8.4147 7.60068,8.4147 l 20.66696,0 c 5.80052,0 8.80544,-4.3585 8.80544,-7.8007 l 0,-21.0995 c 0,-5.8005 -4.24224,-8.6147 -7.68906,-8.6147 -2.29788,0 -10.44279,0.023 -15.97817,0.023 -2.77234,0 -4.88416,-0 -5.28885,-0.023 -0.13024,-0 -0.26049,-0 -0.39073,-0 m 8.10305,28.356 c -2.19555,0 -2.9491,-0.7675 -2.9491,-2.9537 l 0,-13.5175 c 0,-2.1956 0.0605,-2.9538 2.24206,-2.9538 l 5.87959,0 c 2.1909,0 2.9491,0.7629 2.9491,2.9538 l 0,13.5175 c 0,2.1955 -0.76285,2.9537 -2.9491,2.9537 l -5.17255,0"
       style="fill:#000000;fill-opacity:1;fill-rule:nonzero;stroke:none"
       id="path4555" />
    <path
       id="path4557"
       style="fill:#000000;fill-opacity:1;fill-rule:nonzero;stroke:none"
       d="m 298.70109,988.51139 -13.06628,0 0,8.02863 13.06628,0 0,-8.02863 z" />
    <path
       d="m 318.16515,988.74118 -13.257,0.005 0,8.02397 13.257,0 0,-8.02862 z"
       style="fill:#000000;fill-opacity:1;fill-rule:nonzero;stroke:none"
       id="path4569" />
    <path
       d="m 107.80358,929.1847 c -47.325157,0 -107.80497636,0.009 -107.80497636,0.009 l 0.02325789,1.54433 c 11.26612247,0 29.13283447,14.22452 29.36541347,30.16548 l 0,40.96179 c 0,23.3788 15.633954,35.1473 37.431249,35.1473 l 156.195346,0 5.74935,0 0,-0.6884 c -21.02048,-0.8698 -32.06798,-21.6112 -32.06798,-34.1844 l 0,-43.53417 c 0,-14.33151 -13.03837,-29.38402 -36.9754,-29.41193 -7.87977,-0.005 -28.24903,-0.009 -51.91626,-0.009 m -33.347164,45.43196 13.326771,0 0,-27.05823 18.615613,0 0,71.18777 -18.615613,0 0,-26.86753 -13.326771,0 0,26.86753 -18.871453,0 0,-71.18777 18.871453,0 0,27.05823 m 63.833604,0.0837 13.32678,0 0,-27.05823 18.62026,0 0,71.17844 -18.62026,0 0,-26.85355 -13.32678,0 0,26.85355 -18.8668,0 0,-71.17844 18.8668,0 0,27.05823"
       style="fill:#000000;fill-opacity:1;fill-rule:nonzero;stroke:none"
       id="path4573" />
    <path
       d="m 462.98646,1000.3106 -23.41139,0 c -4.77717,0 -7.02389,2.2514 -7.02389,7.196 l 0,20.7181 c 0,6.0889 0.39074,9.6009 7.82861,9.6009 l 30.22596,0 0,-8.945 c 0,0 -8.30307,0.01 -14.7083,0.01 -3.20493,0 -5.93541,-0 -6.91224,-0.01 -2.94445,-0.019 -3.60497,-1.7397 -3.60497,-3.1724 0,-1.428 0.0698,-2.9956 0.0698,-2.9956 l 25.15574,0 -0.0698,-15.2711 c 0,-4.9958 -2.34439,-7.1309 -7.54951,-7.1309 m -17.77833,14.8851 0,-4.2516 c 0,-1.3303 0.91636,-2.6421 2.27927,-2.6421 0.0233,0 0.0512,0 0.0791,0 l 7.10761,0.01 c 1.3257,0 2.65605,0.9164 2.76304,2.4421 l 0,4.4329 -12.229,0.01"
       style="fill:#000000;fill-opacity:1;fill-rule:nonzero;stroke:none"
       id="path4585" />
    <path
       d="m 312.81677,940.57409 -27.21638,0 0,8.58681 21.20654,0 c 1.40478,0 2.13042,0.5675 2.13042,2.86072 l 0,2.38626 -17.16432,0 c -6.12613,0 -8.13096,4.34458 -8.13096,8.18678 l 0,8.19608 c 0,5.65632 5.06092,7.14017 8.81474,7.14017 l 29.49101,0 0,-27.83039 c 0,-5.94471 -3.21889,-9.52643 -9.13105,-9.52643 m -14.49432,29.20726 c -2.7956,0 -2.7956,-7.0797 -0.0605,-7.0797 l 10.54513,0 0,7.0797 -10.48466,0"
       style="fill:#000000;fill-opacity:1;fill-rule:nonzero;stroke:none"
       id="path4589" />
    <path
       d="m 428.11032,1000.004 -28.52813,0 c -4.44226,0 -8.80544,2.67 -8.80544,6.8843 l 0,23.844 c 0,5.6703 4.32597,6.9634 9.02872,6.9634 l 15.44789,0 0,1.67 c 0,1.6047 -0.17676,3.7212 -3.13517,3.7212 l -19.45755,0 0.0186,9.2753 27.8583,0 c 2.13042,-0.2001 7.52625,-2.5724 7.57277,-8.1868 l 0,-44.1714 m -21.87637,9.1404 8.93103,-0.014 0,19.3971 -9.09849,0 c -1.20011,0 -2.40021,-0.7954 -2.24206,-1.7537 l 0,-15.4199 c 0.0512,-1.9398 0.92101,-2.2142 2.29788,-2.2142 0.0372,0 0.0744,0 0.11164,0"
       style="fill:#000000;fill-opacity:1;fill-rule:nonzero;stroke:none"
       id="path4593" />
    <path
       d="m 351.52441,940.36384 c 0,0 -13.93613,0.005 -18.34117,0.005 -4.4004,0 -6.98667,2.89793 -6.80061,8.58681 l 0,29.04446 13.80123,0 0,-25.00689 c 0,-3.11655 0.82333,-3.75847 2.57698,-3.75847 l 4.63762,0 c -0.009,-5.71679 1.96297,-8.71706 4.12595,-8.87056"
       style="fill:#000000;fill-opacity:1;fill-rule:nonzero;stroke:none"
       id="path4597" />
    <path
       d="m 377.20298,940.24569 c 0,0 -15.33625,0.005 -19.74595,0.005 -4.40504,0 -6.98667,2.89793 -6.80061,8.59147 l 0,29.0398 13.79658,0 0,-25.00689 c 0,-3.11655 0.83264,-3.75847 2.58628,-3.75847 l 4.63297,0 c -0.014,-5.71679 3.36775,-8.71706 5.53073,-8.87056"
       style="fill:#000000;fill-opacity:1;fill-rule:nonzero;stroke:none"
       id="path4601" />
    <path
       d="m 481.75186,1000.012 c -4.40504,0 -6.99132,2.9026 -6.80526,8.5915 l 0,29.0444 13.80123,0 0,-25.0115 c 0,-3.1119 0.82798,-3.7492 2.58163,-3.7492 1.74899,0 8.67054,-0.014 8.67054,-0.014 l 0,-8.7404 c 0,0 -13.8431,-0.1209 -18.24814,-0.1209"
       style="fill:#000000;fill-opacity:1;fill-rule:nonzero;stroke:none"
       id="path4605" />
    <path
       id="path4607"
       style="fill:#000000;fill-opacity:1;fill-rule:nonzero;stroke:none"
       d="m 386.02982,988.56721 -13.63843,0 0,8.02863 13.63843,0 0,-8.02863 z" />
    <path
       id="path4609"
       style="fill:#000000;fill-opacity:1;fill-rule:nonzero;stroke:none"
       d="m 386.07634,999.8938 -13.60122,0 0,37.8034 13.60122,0 0,-37.8034 z" />
    <path
       d="m 278.98119,929.29959 -12.8244,0 0,20.37856 -13.15466,0 0,-20.37856 -12.98721,0 0,48.69272 12.98721,0 0,-18.5784 13.15466,0 0,18.5784 12.8244,0 0,-48.69272 z"
       style="fill:#000000;fill-opacity:1;fill-rule:nonzero;stroke:none"
       id="path4613" />
    <path
       id="path4615"
       style="fill:#000000;fill-opacity:1;fill-rule:nonzero;stroke:none"
       d="m 367.14906,988.59512 -13.76867,0 0,49.10208 13.76867,0 0,-49.10208 z" />
    <path
       d="m 336.77891,988.59326 c -3.43286,0 -8.45657,3.20959 -8.44261,8.31237 l 0,2.89793 -6.33545,0 0,8.32164 6.5029,0 0,29.5748 13.80589,0 0,-29.5748 7.2425,0 0,-8.25186 c 0,0 -5.57259,0 -7.52625,0 l 0,-1.27919 c 0,-1.60944 0.7489,-1.85132 1.59549,-1.85132 l 5.96798,0 0,-8.14957 -1.23732,0 c 0,0 -3.3724,0.0186 -6.78666,0.0186 -1.71178,0 -3.42821,-0.005 -4.73995,-0.0186 -0.0186,0 -0.0326,0 -0.0465,0"
       style="fill:#000000;fill-opacity:1;fill-rule:nonzero;stroke:none"
       id="path4619" />
    <path
       d="m 279.04538,988.757 -12.8337,0 0,20.3832 -13.14536,0 0,-20.3832 -12.98721,0 0,48.6927 12.98721,0 0,-18.5784 13.14536,0 0,18.5784 12.8337,0 0,-48.6927 z"
       style="fill:#000000;fill-opacity:1;fill-rule:nonzero;stroke:none"
       id="path4623" />
  </g>
</svg>
