<?xml version="1.0" encoding="iso-8859-1"?>
<!-- Generator: Adobe Illustrator 24.3.0, SVG Export Plug-In . SVG Version: 6.00 Build 0)  -->
<svg version="1.1" id="Layer_1" xmlns="http://www.w3.org/2000/svg" xmlns:xlink="http://www.w3.org/1999/xlink" x="0px" y="0px"
	 viewBox="0 0 500 500" style="enable-background:new 0 0 500 500;" xml:space="preserve">
<g id="watermark_1_">
	<g>
		<g id="watermark" style="opacity:0.61;">
			<g>
				<g>
					<g>
						<g>
							<polygon style="fill:#FFFFFF;" points="213.765,461.172 208.204,474.017 205.268,474.017 199.726,461.172 202.938,461.172 
								206.846,470.347 210.81,461.172 							"/>
						</g>
						<g>
							<path style="fill:#FFFFFF;" d="M223.507,469.741h-7.469c0.275,1.23,1.321,1.982,2.826,1.982c1.046,0,1.798-0.312,2.477-0.954
								l1.523,1.651c-0.917,1.046-2.294,1.597-4.074,1.597c-3.413,0-5.634-2.147-5.634-5.083c0-2.954,2.257-5.083,5.267-5.083
								c2.899,0,5.138,1.945,5.138,5.12C223.562,469.191,223.526,469.503,223.507,469.741 M216.002,468.071h4.863
								c-0.202-1.248-1.138-2.055-2.422-2.055C217.139,466.016,216.204,466.805,216.002,468.071"/>
						</g>
						<g>
							<path style="fill:#FFFFFF;" d="M224.735,468.934c0-2.973,2.294-5.083,5.505-5.083c2.074,0,3.707,0.899,4.423,2.514
								l-2.22,1.193c-0.532-0.936-1.321-1.358-2.221-1.358c-1.45,0-2.587,1.009-2.587,2.734c0,1.725,1.138,2.734,2.587,2.734
								c0.899,0,1.688-0.404,2.221-1.358l2.22,1.211c-0.716,1.578-2.349,2.495-4.423,2.495
								C227.029,474.017,224.735,471.907,224.735,468.934"/>
						</g>
						<g>
							<path style="fill:#FFFFFF;" d="M242.828,473.393c-0.587,0.422-1.45,0.624-2.331,0.624c-2.33,0-3.688-1.193-3.688-3.542
								v-4.055h-1.523v-2.202h1.523v-2.404h2.863v2.404h2.459v2.202h-2.459v4.019c0,0.844,0.458,1.303,1.229,1.303
								c0.422,0,0.844-0.128,1.156-0.367L242.828,473.393z"/>
						</g>
					</g>
					<g>
						<path style="fill:#FFFFFF;" d="M262.474,463.997v2.643c-0.238-0.018-0.422-0.037-0.642-0.037
							c-1.578,0-2.624,0.862-2.624,2.753v4.661h-2.863v-9.873h2.734v1.303C259.776,464.493,260.951,463.997,262.474,463.997"/>
					</g>
					<g>
						<path style="fill:#FFFFFF;" d="M263.299,472.53l1.009-2.239c1.083,0.789,2.697,1.339,4.239,1.339
							c1.762,0,2.477-0.587,2.477-1.376c0-2.404-7.469-0.752-7.469-5.524c0-2.184,1.762-4,5.413-4c1.615,0,3.267,0.385,4.459,1.138
							l-0.918,2.257c-1.193-0.679-2.422-1.009-3.56-1.009c-1.761,0-2.44,0.66-2.44,1.468c0,2.367,7.468,0.734,7.468,5.45
							c0,2.147-1.78,3.982-5.45,3.982C266.492,474.017,264.437,473.411,263.299,472.53"/>
					</g>
					<g>
						<path style="fill:#FFFFFF;" d="M285.428,469.741h-7.469c0.275,1.23,1.321,1.982,2.826,1.982c1.046,0,1.798-0.312,2.477-0.954
							l1.523,1.651c-0.918,1.046-2.294,1.597-4.074,1.597c-3.413,0-5.634-2.147-5.634-5.083c0-2.954,2.257-5.083,5.267-5.083
							c2.9,0,5.138,1.945,5.138,5.12C285.484,469.191,285.447,469.503,285.428,469.741 M277.923,468.071h4.863
							c-0.202-1.248-1.138-2.055-2.422-2.055C279.061,466.016,278.125,466.805,277.923,468.071"/>
					</g>
					<g>
						<path style="fill:#FFFFFF;" d="M297.007,469.741h-7.469c0.275,1.23,1.321,1.982,2.826,1.982c1.046,0,1.798-0.312,2.477-0.954
							l1.523,1.651c-0.918,1.046-2.294,1.597-4.074,1.597c-3.413,0-5.634-2.147-5.634-5.083c0-2.954,2.257-5.083,5.267-5.083
							c2.899,0,5.138,1.945,5.138,5.12C297.062,469.191,297.025,469.503,297.007,469.741 M289.501,468.071h4.863
							c-0.202-1.248-1.138-2.055-2.422-2.055C290.639,466.016,289.703,466.805,289.501,468.071"/>
					</g>
					<g>
						<polygon style="fill:#FFFFFF;" points="303.208,470.145 301.831,471.503 301.831,474.017 298.969,474.017 298.969,460.401 
							301.831,460.401 301.831,468.108 306.016,464.144 309.429,464.144 305.318,468.328 309.796,474.017 306.327,474.017 						"/>
					</g>
					<g>
						<path style="fill:#FFFFFF;" d="M256.601,475.359L256.601,475.359l-2.86-2.86c-0.435,0.508-0.953,0.943-1.534,1.284
							c-0.092,0.069-0.186,0.136-0.283,0.199l3.027,3.027c0.456,0.456,1.195,0.456,1.65,0
							C257.057,476.554,257.057,475.815,256.601,475.359"/>
					</g>
					<g>
						<path style="fill:#FFFFFF;" d="M249.984,463.244c0.221-0.173,0.495-0.281,0.797-0.281c0.042,0,0.083,0.002,0.124,0.006
							c-0.214-0.156-0.478-0.249-0.764-0.249c-0.395,0-0.744,0.18-0.981,0.458c-0.051,0-0.1,0.006-0.151,0.008
							c0.039-0.077,0.064-0.162,0.064-0.255c0-0.234-0.143-0.434-0.346-0.519c0.087,0.126,0.138,0.279,0.138,0.445
							c0,0.122-0.031,0.237-0.081,0.341c-2.811,0.201-5.03,2.539-5.03,5.4c0,2.993,2.426,5.42,5.42,5.42
							c2.993,0,5.42-2.426,5.42-5.42C254.595,465.879,252.593,463.635,249.984,463.244 M247.983,464.656
							c0.435,0,0.844,0.112,1.199,0.309c0.374-0.245,0.82-0.387,1.299-0.387c0.711,0,1.348,0.312,1.784,0.806
							c-0.435-0.379-1.004-0.61-1.627-0.61c-0.449,0-0.87,0.12-1.234,0.329c-0.079,0.046-0.156,0.096-0.229,0.15
							c-0.065-0.048-0.133-0.093-0.204-0.134c-0.369-0.219-0.8-0.344-1.26-0.344c-0.3,0-0.588,0.054-0.854,0.152
							C247.196,464.754,247.578,464.656,247.983,464.656 M251.772,469.098c0.115,0.305,0.181,0.634,0.181,0.979
							c0,1.534-1.244,2.777-2.778,2.777c-1.534,0-2.777-1.243-2.777-2.777c0-0.345,0.066-0.674,0.181-0.979
							c-0.62-0.382-1.035-1.064-1.035-1.846c0-1.197,0.971-2.168,2.168-2.168c0.565,0,1.078,0.218,1.463,0.572
							c0.386-0.354,0.899-0.572,1.464-0.572c1.197,0,2.168,0.971,2.168,2.168C252.807,468.034,252.392,468.716,251.772,469.098"/>
					</g>
					<g>
						<path style="fill:#FFFFFF;" d="M251.666,467.061c0,0.497-0.404,0.901-0.901,0.901c-0.497,0-0.901-0.404-0.901-0.901
							s0.404-0.901,0.901-0.901c0.101,0,0.197,0.017,0.287,0.047c-0.03,0.062-0.045,0.132-0.045,0.204
							c0,0.273,0.221,0.494,0.494,0.494c0.05,0,0.099-0.008,0.146-0.022C251.66,466.941,251.666,467,251.666,467.061"/>
					</g>
					<g>
						<path style="fill:#FFFFFF;" d="M248.255,467.061c0,0.376-0.305,0.681-0.681,0.681c-0.376,0-0.681-0.305-0.681-0.681
							s0.305-0.681,0.681-0.681c0.076,0,0.149,0.013,0.217,0.035c-0.023,0.047-0.034,0.1-0.034,0.155
							c0,0.206,0.167,0.374,0.374,0.374c0.038,0,0.075-0.006,0.11-0.017C248.25,466.97,248.255,467.015,248.255,467.061"/>
					</g>
					<g>
						<g>
							<g>
								<rect x="242.908" y="467.83" style="fill:#FFFFFF;" width="0.616" height="0.616"/>
							</g>
							<g>
								<rect x="254.827" y="467.83" style="fill:#FFFFFF;" width="0.616" height="0.616"/>
							</g>
							<g>
								<path style="fill:#FFFFFF;" d="M255.205,468.082h-0.14c0-3.248-2.642-5.89-5.89-5.89c-3.248,0-5.89,2.642-5.89,5.89h-0.14
									c0-1.611,0.627-3.125,1.766-4.264c1.139-1.139,2.653-1.766,4.264-1.766c1.611,0,3.125,0.627,4.264,1.766
									C254.578,464.957,255.205,466.471,255.205,468.082"/>
							</g>
						</g>
						<g>
							<rect x="248.868" y="461.814" style="fill:#FFFFFF;" width="0.616" height="0.616"/>
						</g>
						<g>
							<rect x="244.95" y="462.052" style="fill:#FFFFFF;" width="8.45" height="0.14"/>
						</g>
						<g>
							<path style="fill:#FFFFFF;" d="M245.174,462.15c0,0.108-0.088,0.196-0.196,0.196c-0.108,0-0.196-0.088-0.196-0.196
								c0-0.108,0.088-0.196,0.196-0.196C245.086,461.954,245.174,462.042,245.174,462.15"/>
						</g>
						<g>
							<path style="fill:#FFFFFF;" d="M253.596,462.15c0,0.108-0.088,0.196-0.196,0.196c-0.108,0-0.196-0.088-0.196-0.196
								c0-0.108,0.088-0.196,0.196-0.196C253.509,461.954,253.596,462.042,253.596,462.15"/>
						</g>
					</g>
				</g>
				<g>
					<path style="fill:#FFFFFF;" d="M314.356,473.409c0,1.559-2.364,1.559-2.364,0C311.993,471.851,314.356,471.851,314.356,473.409
						z"/>
				</g>
				<g>
					<g>
						<g>
							<path style="fill:#FFFFFF;" d="M161.739,466.549l1.772,6.088l1.855-6.088h2.215l-2.823,8.14h-2.33l-0.837-2.396l-0.722-2.708
								l-0.722,2.708l-0.837,2.396h-2.33l-2.839-8.14h2.231l1.855,6.088l1.756-6.088H161.739z"/>
						</g>
						<g>
							<path style="fill:#FFFFFF;" d="M176.713,466.549l1.772,6.088l1.855-6.088h2.215l-2.823,8.14h-2.33l-0.837-2.396l-0.722-2.708
								l-0.722,2.708l-0.837,2.396h-2.33l-2.839-8.14h2.231l1.855,6.088l1.756-6.088H176.713z"/>
						</g>
						<g>
							<path style="fill:#FFFFFF;" d="M191.687,466.549l1.772,6.088l1.855-6.088h2.215l-2.823,8.14h-2.33l-0.837-2.396l-0.722-2.708
								l-0.722,2.708l-0.837,2.396h-2.33l-2.839-8.14h2.231l1.855,6.088l1.756-6.088H191.687z"/>
						</g>
					</g>
					<g>
						<path style="fill:#FFFFFF;" d="M200.908,473.52c0,1.559-2.364,1.559-2.364,0C198.545,471.962,200.908,471.962,200.908,473.52z
							"/>
					</g>
					<g>
						<path style="fill:#FFFFFF;" d="M322.71,473.409c-0.935,0.919-1.919,1.28-3.117,1.28c-2.346,0-4.3-1.411-4.3-4.282
							s1.953-4.284,4.3-4.284c1.149,0,2.035,0.329,2.921,1.199l-1.264,1.329c-0.476-0.428-1.066-0.64-1.623-0.64
							c-1.346,0-2.33,0.985-2.33,2.396c0,1.542,1.05,2.362,2.297,2.362c0.64,0,1.28-0.18,1.772-0.672L322.71,473.409z"/>
					</g>
					<g>
						<path style="fill:#FFFFFF;" d="M331.805,470.472c0,2.33-1.591,4.217-4.217,4.217c-2.626,0-4.201-1.887-4.201-4.217
							c0-2.314,1.609-4.217,4.185-4.217C330.149,466.255,331.805,468.158,331.805,470.472z M325.389,470.472
							c0,1.231,0.739,2.38,2.199,2.38c1.46,0,2.199-1.149,2.199-2.38c0-1.215-0.854-2.396-2.199-2.396
							C326.144,468.077,325.389,469.258,325.389,470.472z"/>
					</g>
					<g>
						<path style="fill:#FFFFFF;" d="M338.572,474.689v-4.332c0-1.068-0.559-2.035-1.658-2.035c-1.082,0-1.722,0.967-1.722,2.035
							v4.332h-2.003v-8.107h1.855l0.148,0.985c0.426-0.82,1.362-1.116,2.133-1.116c0.969,0,1.937,0.394,2.396,1.51
							c0.723-1.149,1.658-1.478,2.708-1.478c2.297,0,3.43,1.412,3.43,3.84v4.365h-2.003v-4.365c0-1.066-0.442-1.97-1.526-1.97
							c-1.082,0-1.756,0.935-1.756,2.003v4.332H338.572z"/>
					</g>
				</g>
			</g>
		</g>
		<g style="opacity:0.61;">
			<g>
				<g>
					<path style="fill:#FFFFFF;" d="M345.988,431.299c-0.006-1.224-0.959-2.121-2.189-2.14c-0.924-0.014-0.832,0.12-0.834-0.867
						c-0.003-1.097-0.007-2.194,0.003-3.292c0.003-0.379-0.112-0.691-0.362-0.976c-2.342-2.668-4.678-5.342-7.019-8.011
						c-0.12-0.137-0.275-0.244-0.414-0.366c-6.214,0-12.427,0-18.641,0c-0.794,0.293-1.14,0.868-1.138,1.709
						c0.01,3.748,0.004,7.496,0.004,11.243c0,0.556-0.003,0.589-0.55,0.551c-1.497-0.102-2.516,0.986-2.497,2.492
						c0.044,3.476,0.013,6.953,0.014,10.429c0.001,1.58,0.867,2.443,2.45,2.449c0.582,0.002,0.582,0.002,0.582,0.6
						c0,2.219-0.001,4.438,0.001,6.657c0.001,1.192,0.58,1.771,1.768,1.771c8.013,0.001,16.027,0.001,24.04,0
						c1.168,0,1.755-0.583,1.757-1.745c0.002-2.256,0-4.512,0.001-6.768c0-0.512,0.002-0.511,0.52-0.515
						c0.271-0.002,0.541,0.008,0.809-0.058c0.996-0.246,1.69-1.044,1.694-2.069C346.003,438.696,346.005,434.997,345.988,431.299z
						 M317.537,417.162c5.337,0,10.674,0,16.01,0c0.548,0,0.554,0.007,0.554,0.561c0.001,2.243-0.001,4.486,0.001,6.73
						c0.001,0.811,0.249,1.059,1.06,1.059c1.91,0.001,3.821,0,5.731,0.001c0.458,0,0.479,0.021,0.481,0.483
						c0.003,0.887,0.002,1.775,0,2.662c-0.001,0.477-0.024,0.498-0.504,0.499c-3.895,0.001-7.79,0-11.684,0
						c-3.882,0-7.765,0-11.647,0c-0.55,0-0.552-0.001-0.552-0.561c-0.001-3.624-0.001-7.247,0-10.871
						C316.987,417.166,316.991,417.162,317.537,417.162z M340.822,451.579c-3.883,0.001-7.766,0-11.65,0c-3.871,0-7.742,0-11.613,0
						c-0.572,0-0.574-0.002-0.574-0.579c-0.001-1.997-0.001-3.994,0.001-5.991c0-0.464,0.023-0.486,0.478-0.487
						c7.803-0.001,15.607-0.001,23.41,0c0.478,0,0.499,0.02,0.499,0.503c0.002,1.997,0.001,3.994,0,5.991
						C341.375,451.574,341.37,451.579,340.822,451.579z"/>
				</g>
				<g>
					<g>
						<rect x="327.418" y="417.053" style="fill:#FFFFFF;" width="1.757" height="1.054"/>
					</g>
					<g>
						<rect x="325.662" y="418.107" style="fill:#FFFFFF;" width="1.757" height="1.054"/>
					</g>
					<g>
						<rect x="327.418" y="419.161" style="fill:#FFFFFF;" width="1.757" height="1.054"/>
					</g>
					<g>
						<rect x="325.662" y="420.215" style="fill:#FFFFFF;" width="1.757" height="1.054"/>
					</g>
					<g>
						<rect x="327.418" y="421.269" style="fill:#FFFFFF;" width="1.757" height="1.054"/>
					</g>
					<g>
						<rect x="325.662" y="422.323" style="fill:#FFFFFF;" width="1.757" height="1.054"/>
					</g>
					<g>
						<rect x="327.418" y="423.378" style="fill:#FFFFFF;" width="1.757" height="1.054"/>
					</g>
					<g>
						<rect x="325.662" y="424.432" style="fill:#FFFFFF;" width="1.757" height="1.054"/>
					</g>
					<g>
						<rect x="327.418" y="425.486" style="fill:#FFFFFF;" width="1.757" height="1.054"/>
					</g>
					<g>
						<rect x="325.662" y="426.54" style="fill:#FFFFFF;" width="1.757" height="1.054"/>
					</g>
					<g>
						<rect x="327.418" y="427.594" style="fill:#FFFFFF;" width="1.757" height="1.054"/>
					</g>
					<g>
						<rect x="325.662" y="428.648" style="fill:#FFFFFF;" width="1.757" height="1.054"/>
					</g>
				</g>
			</g>
			<g>
				<path style="fill:#FFFFFF;" d="M187.637,431.299c-0.006-1.224-0.959-2.121-2.189-2.14c-0.924-0.014-0.832,0.12-0.834-0.867
					c-0.003-1.097-0.007-2.194,0.003-3.292c0.003-0.379-0.112-0.691-0.362-0.976c-2.342-2.668-4.678-5.342-7.019-8.011
					c-0.12-0.137-0.275-0.244-0.414-0.366c-6.214,0-12.427,0-18.641,0c-0.794,0.293-1.14,0.868-1.138,1.709
					c0.01,3.748,0.004,7.496,0.004,11.243c0,0.556-0.003,0.589-0.55,0.551c-1.497-0.102-2.516,0.986-2.497,2.492
					c0.044,3.476,0.013,6.953,0.014,10.429c0.001,1.58,0.867,2.443,2.45,2.449c0.582,0.002,0.582,0.002,0.582,0.6
					c0,2.219-0.001,4.438,0.001,6.657c0.001,1.192,0.58,1.771,1.768,1.771c8.013,0.001,16.027,0.001,24.04,0
					c1.168,0,1.755-0.583,1.757-1.745c0.002-2.256,0-4.512,0.001-6.768c0-0.512,0.002-0.511,0.52-0.515
					c0.271-0.002,0.541,0.008,0.809-0.058c0.996-0.246,1.69-1.044,1.694-2.069C187.652,438.696,187.655,434.997,187.637,431.299z
					 M159.187,417.162c5.337,0,10.674,0,16.01,0c0.548,0,0.554,0.007,0.554,0.561c0.001,2.243-0.001,4.486,0.001,6.73
					c0.001,0.811,0.249,1.059,1.06,1.059c1.91,0.001,3.821,0,5.731,0.001c0.458,0,0.479,0.021,0.481,0.483
					c0.003,0.887,0.002,1.775,0,2.662c-0.001,0.477-0.024,0.498-0.504,0.499c-3.895,0.001-7.79,0-11.684,0
					c-3.882,0-7.765,0-11.647,0c-0.55,0-0.552-0.001-0.552-0.561c-0.001-3.624-0.001-7.247,0-10.871
					C158.636,417.166,158.64,417.162,159.187,417.162z M182.472,451.579c-3.883,0.001-7.766,0-11.65,0c-3.871,0-7.742,0-11.613,0
					c-0.572,0-0.574-0.002-0.574-0.579c-0.001-1.997-0.001-3.994,0.001-5.991c0-0.464,0.023-0.486,0.478-0.487
					c7.803-0.001,15.607-0.001,23.41,0c0.478,0,0.499,0.02,0.499,0.503c0.002,1.997,0.001,3.994,0,5.991
					C183.024,451.574,183.019,451.579,182.472,451.579z"/>
			</g>
			<g>
				<path style="fill:#FFFFFF;" d="M159.779,440.669v-7.897h2.779c0.375,0,0.726,0.061,1.053,0.182
					c0.327,0.121,0.612,0.292,0.855,0.513c0.242,0.221,0.434,0.483,0.573,0.789c0.14,0.305,0.21,0.642,0.21,1.009
					c0,0.375-0.07,0.715-0.21,1.02c-0.14,0.305-0.331,0.568-0.573,0.789c-0.243,0.221-0.528,0.392-0.855,0.513
					c-0.327,0.121-0.678,0.182-1.053,0.182h-1.29v2.901H159.779z M162.58,436.356c0.39,0,0.684-0.111,0.882-0.331
					c0.199-0.22,0.298-0.474,0.298-0.761c0-0.14-0.024-0.276-0.072-0.408c-0.048-0.132-0.121-0.248-0.221-0.347
					c-0.099-0.099-0.223-0.178-0.37-0.237c-0.147-0.059-0.32-0.089-0.518-0.089h-1.312v2.173H162.58z"/>
				<path style="fill:#FFFFFF;" d="M166.308,432.771h1.731l3.177,5.294h0.088l-0.088-1.522v-3.772h1.478v7.897h-1.566l-3.353-5.592
					h-0.088l0.088,1.522v4.07h-1.467V432.771z"/>
				<path style="fill:#FFFFFF;" d="M177.922,436.334h3.872c0.022,0.089,0.04,0.195,0.055,0.32c0.014,0.125,0.022,0.25,0.022,0.375
					c0,0.507-0.077,0.985-0.231,1.434c-0.154,0.449-0.397,0.849-0.728,1.202c-0.353,0.375-0.776,0.666-1.268,0.871
					c-0.493,0.206-1.055,0.309-1.688,0.309c-0.574,0-1.114-0.103-1.622-0.309c-0.507-0.206-0.948-0.492-1.323-0.86
					c-0.375-0.367-0.673-0.803-0.894-1.307c-0.221-0.504-0.331-1.053-0.331-1.649c0-0.595,0.11-1.145,0.331-1.649
					c0.221-0.504,0.518-0.939,0.894-1.307c0.375-0.367,0.816-0.654,1.323-0.86c0.507-0.206,1.048-0.309,1.622-0.309
					c0.64,0,1.211,0.11,1.715,0.331c0.504,0.221,0.935,0.526,1.296,0.915l-1.025,1.004c-0.258-0.272-0.544-0.48-0.861-0.623
					c-0.316-0.143-0.695-0.215-1.136-0.215c-0.361,0-0.703,0.065-1.026,0.193c-0.324,0.129-0.607,0.311-0.85,0.546
					c-0.242,0.235-0.436,0.52-0.579,0.855c-0.143,0.335-0.215,0.708-0.215,1.119c0,0.412,0.072,0.785,0.215,1.12
					c0.143,0.335,0.338,0.62,0.584,0.855c0.246,0.235,0.531,0.418,0.855,0.546c0.323,0.129,0.669,0.193,1.037,0.193
					c0.419,0,0.773-0.061,1.064-0.182c0.29-0.121,0.538-0.278,0.744-0.469c0.148-0.132,0.275-0.3,0.381-0.502
					c0.106-0.202,0.189-0.428,0.248-0.678h-2.482V436.334z"/>
			</g>
			<g>
				<path style="fill:#FFFFFF;" d="M224.019,431.299c-0.006-1.224-0.959-2.121-2.189-2.14c-0.924-0.014-0.832,0.12-0.834-0.867
					c-0.003-1.097-0.007-2.194,0.003-3.292c0.003-0.379-0.112-0.691-0.362-0.976c-2.342-2.668-4.678-5.342-7.019-8.011
					c-0.12-0.137-0.275-0.244-0.414-0.366c-6.214,0-12.427,0-18.641,0c-0.794,0.293-1.14,0.868-1.138,1.709
					c0.01,3.748,0.004,7.496,0.004,11.243c0,0.556-0.003,0.589-0.55,0.551c-1.497-0.102-2.516,0.986-2.497,2.492
					c0.044,3.476,0.013,6.953,0.014,10.429c0.001,1.58,0.867,2.443,2.45,2.449c0.582,0.002,0.582,0.002,0.582,0.6
					c0,2.219-0.001,4.438,0.001,6.657c0.001,1.192,0.58,1.771,1.768,1.771c8.013,0.001,16.027,0.001,24.04,0
					c1.168,0,1.755-0.583,1.757-1.745c0.002-2.256,0-4.512,0.001-6.768c0-0.512,0.002-0.511,0.52-0.515
					c0.271-0.002,0.541,0.008,0.809-0.058c0.997-0.246,1.69-1.044,1.694-2.069C224.034,438.696,224.036,434.997,224.019,431.299z
					 M195.568,417.162c5.337,0,10.674,0,16.01,0c0.548,0,0.554,0.007,0.554,0.561c0.001,2.243-0.001,4.486,0.001,6.73
					c0.001,0.811,0.249,1.059,1.06,1.059c1.91,0.001,3.821,0,5.731,0.001c0.458,0,0.479,0.021,0.481,0.483
					c0.003,0.887,0.002,1.775,0,2.662c-0.001,0.477-0.024,0.498-0.504,0.499c-3.895,0.001-7.79,0-11.684,0
					c-3.882,0-7.765,0-11.647,0c-0.55,0-0.552-0.001-0.552-0.561c-0.001-3.624-0.001-7.247,0-10.871
					C195.018,417.166,195.022,417.162,195.568,417.162z M218.854,451.579c-3.883,0.001-7.766,0-11.65,0c-3.871,0-7.742,0-11.613,0
					c-0.572,0-0.574-0.002-0.574-0.579c-0.001-1.997-0.001-3.994,0.001-5.991c0-0.464,0.023-0.486,0.478-0.487
					c7.803-0.001,15.607-0.001,23.41,0c0.478,0,0.499,0.02,0.499,0.503c0.002,1.997,0.001,3.994,0,5.991
					C219.406,451.574,219.401,451.579,218.854,451.579z"/>
			</g>
			<g>
				<path style="fill:#FFFFFF;" d="M205.111,432.771h1.699l2.967,7.897h-1.644l-0.651-1.886h-3.044l-0.651,1.886h-1.643
					L205.111,432.771z M206.997,437.415l-0.706-1.974l-0.287-0.96h-0.088l-0.287,0.96l-0.706,1.974H206.997z"/>
				<path style="fill:#FFFFFF;" d="M211.331,434.536c-0.125,0-0.245-0.024-0.359-0.072c-0.114-0.048-0.213-0.114-0.298-0.199
					c-0.084-0.084-0.151-0.182-0.198-0.292c-0.048-0.11-0.072-0.232-0.072-0.364s0.024-0.254,0.072-0.364
					c0.048-0.11,0.114-0.208,0.198-0.292c0.084-0.084,0.184-0.151,0.298-0.198c0.114-0.048,0.233-0.072,0.359-0.072
					c0.257,0,0.478,0.09,0.662,0.27c0.184,0.181,0.276,0.399,0.276,0.656s-0.092,0.476-0.276,0.656
					C211.809,434.446,211.589,434.536,211.331,434.536z M210.615,440.669v-5.404h1.445v5.404H210.615z"/>
			</g>
			<g>
				<path style="fill:#FFFFFF;" d="M261.044,431.299c-0.006-1.224-0.959-2.121-2.189-2.14c-0.924-0.014-0.832,0.12-0.834-0.867
					c-0.003-1.097-0.007-2.194,0.003-3.292c0.003-0.379-0.112-0.691-0.362-0.976c-2.342-2.668-4.678-5.342-7.019-8.011
					c-0.12-0.137-0.275-0.244-0.414-0.366c-6.214,0-12.427,0-18.641,0c-0.794,0.293-1.14,0.868-1.138,1.709
					c0.01,3.748,0.004,7.496,0.004,11.243c0,0.556-0.003,0.589-0.55,0.551c-1.497-0.102-2.516,0.986-2.497,2.492
					c0.044,3.476,0.013,6.953,0.014,10.429c0.001,1.58,0.867,2.443,2.45,2.449c0.582,0.002,0.582,0.002,0.582,0.6
					c0,2.219-0.001,4.438,0.001,6.657c0.001,1.192,0.58,1.771,1.768,1.771c8.013,0.001,16.027,0.001,24.04,0
					c1.168,0,1.755-0.583,1.757-1.745c0.002-2.256,0-4.512,0.001-6.768c0-0.512,0.002-0.511,0.52-0.515
					c0.271-0.002,0.541,0.008,0.809-0.058c0.996-0.246,1.69-1.044,1.694-2.069C261.059,438.696,261.061,434.997,261.044,431.299z
					 M232.593,417.162c5.337,0,10.674,0,16.01,0c0.548,0,0.554,0.007,0.554,0.561c0.001,2.243-0.001,4.486,0.001,6.73
					c0.001,0.811,0.249,1.059,1.06,1.059c1.91,0.001,3.821,0,5.731,0.001c0.458,0,0.479,0.021,0.481,0.483
					c0.003,0.887,0.002,1.775,0,2.662c-0.001,0.477-0.024,0.498-0.504,0.499c-3.895,0.001-7.79,0-11.684,0
					c-3.882,0-7.765,0-11.647,0c-0.55,0-0.552-0.001-0.552-0.561c-0.001-3.624-0.001-7.247,0-10.871
					C232.042,417.166,232.047,417.162,232.593,417.162z M255.878,451.579c-3.883,0.001-7.766,0-11.65,0c-3.871,0-7.742,0-11.613,0
					c-0.572,0-0.574-0.002-0.574-0.579c-0.001-1.997-0.001-3.994,0.001-5.991c0-0.464,0.023-0.486,0.478-0.487
					c7.803-0.001,15.607-0.001,23.41,0c0.478,0,0.499,0.02,0.499,0.503c0.002,1.997,0.001,3.994,0,5.991
					C256.431,451.574,256.426,451.579,255.878,451.579z"/>
			</g>
			<g>
				<path style="fill:#FFFFFF;" d="M236.361,440.845c-0.338,0-0.662-0.048-0.971-0.143c-0.309-0.095-0.592-0.239-0.849-0.43
					c-0.257-0.191-0.481-0.425-0.673-0.7c-0.191-0.276-0.342-0.597-0.452-0.965l1.401-0.551c0.103,0.397,0.283,0.726,0.54,0.987
					c0.257,0.261,0.596,0.392,1.015,0.392c0.154,0,0.303-0.02,0.447-0.061c0.143-0.04,0.272-0.099,0.386-0.176
					s0.204-0.175,0.27-0.292c0.066-0.118,0.099-0.254,0.099-0.408c0-0.147-0.026-0.279-0.077-0.397
					c-0.051-0.117-0.138-0.227-0.259-0.331c-0.121-0.103-0.28-0.202-0.475-0.298c-0.195-0.095-0.435-0.195-0.722-0.298l-0.485-0.176
					c-0.213-0.073-0.429-0.173-0.645-0.298c-0.217-0.125-0.413-0.276-0.59-0.452c-0.177-0.176-0.322-0.384-0.436-0.623
					c-0.114-0.239-0.171-0.509-0.171-0.81c0-0.309,0.06-0.597,0.182-0.866c0.121-0.268,0.294-0.503,0.518-0.706
					c0.224-0.202,0.492-0.36,0.805-0.474s0.66-0.171,1.042-0.171c0.397,0,0.74,0.053,1.031,0.16
					c0.291,0.107,0.537,0.243,0.739,0.408c0.202,0.165,0.366,0.348,0.491,0.546c0.125,0.199,0.217,0.386,0.276,0.563l-1.312,0.551
					c-0.074-0.221-0.208-0.419-0.402-0.596c-0.195-0.176-0.462-0.265-0.8-0.265c-0.324,0-0.592,0.075-0.805,0.226
					c-0.213,0.151-0.32,0.348-0.32,0.59c0,0.235,0.103,0.436,0.309,0.601c0.206,0.165,0.533,0.325,0.982,0.48l0.497,0.165
					c0.316,0.111,0.605,0.237,0.866,0.381c0.261,0.143,0.485,0.314,0.673,0.513c0.187,0.199,0.331,0.425,0.43,0.678
					c0.1,0.254,0.149,0.546,0.149,0.877c0,0.412-0.083,0.767-0.248,1.064c-0.165,0.298-0.377,0.542-0.634,0.734
					c-0.258,0.191-0.548,0.335-0.872,0.43C236.986,440.797,236.67,440.845,236.361,440.845z"/>
				<path style="fill:#FFFFFF;" d="M239.516,432.771h1.61l1.633,4.754l0.287,1.015h0.088l0.309-1.015l1.699-4.754h1.61l-2.879,7.897
					h-1.566L239.516,432.771z"/>
				<path style="fill:#FFFFFF;" d="M251.097,436.334h3.871c0.022,0.089,0.04,0.195,0.055,0.32c0.015,0.125,0.023,0.25,0.023,0.375
					c0,0.507-0.078,0.985-0.232,1.434c-0.154,0.449-0.397,0.849-0.728,1.202c-0.353,0.375-0.775,0.666-1.268,0.871
					c-0.493,0.206-1.055,0.309-1.688,0.309c-0.574,0-1.114-0.103-1.621-0.309c-0.507-0.206-0.949-0.492-1.324-0.86
					c-0.375-0.367-0.673-0.803-0.894-1.307c-0.22-0.504-0.331-1.053-0.331-1.649c0-0.595,0.11-1.145,0.331-1.649
					c0.221-0.504,0.518-0.939,0.894-1.307c0.375-0.367,0.816-0.654,1.324-0.86c0.507-0.206,1.047-0.309,1.621-0.309
					c0.64,0,1.211,0.11,1.715,0.331c0.504,0.221,0.936,0.526,1.296,0.915l-1.026,1.004c-0.257-0.272-0.544-0.48-0.861-0.623
					c-0.316-0.143-0.694-0.215-1.136-0.215c-0.36,0-0.702,0.065-1.026,0.193c-0.323,0.129-0.607,0.311-0.849,0.546
					c-0.243,0.235-0.436,0.52-0.579,0.855c-0.143,0.335-0.215,0.708-0.215,1.119c0,0.412,0.072,0.785,0.215,1.12
					c0.143,0.335,0.338,0.62,0.585,0.855c0.246,0.235,0.531,0.418,0.854,0.546c0.324,0.129,0.669,0.193,1.037,0.193
					c0.419,0,0.774-0.061,1.064-0.182c0.29-0.121,0.539-0.278,0.745-0.469c0.147-0.132,0.274-0.3,0.38-0.502
					c0.107-0.202,0.189-0.428,0.248-0.678h-2.482V436.334z"/>
			</g>
			<g>
				<path style="fill:#FFFFFF;" d="M297.3,431.299c-0.006-1.224-0.959-2.121-2.189-2.14c-0.924-0.014-0.832,0.12-0.834-0.867
					c-0.003-1.097-0.007-2.194,0.003-3.292c0.003-0.379-0.112-0.691-0.362-0.976c-2.342-2.668-4.678-5.342-7.019-8.011
					c-0.12-0.137-0.275-0.244-0.414-0.366c-6.214,0-12.427,0-18.641,0c-0.794,0.293-1.14,0.868-1.138,1.709
					c0.01,3.748,0.004,7.496,0.004,11.243c0,0.556-0.003,0.589-0.55,0.551c-1.497-0.102-2.516,0.986-2.497,2.492
					c0.044,3.476,0.013,6.953,0.014,10.429c0.001,1.58,0.867,2.443,2.45,2.449c0.582,0.002,0.582,0.002,0.582,0.6
					c0,2.219-0.001,4.438,0.001,6.657c0.001,1.192,0.58,1.771,1.768,1.771c8.013,0.001,16.027,0.001,24.04,0
					c1.168,0,1.755-0.583,1.757-1.745c0.002-2.256,0-4.512,0.001-6.768c0-0.512,0.002-0.511,0.52-0.515
					c0.271-0.002,0.541,0.008,0.809-0.058c0.996-0.246,1.69-1.044,1.694-2.069C297.315,438.696,297.318,434.997,297.3,431.299z
					 M268.85,417.162c5.337,0,10.674,0,16.01,0c0.548,0,0.554,0.007,0.554,0.561c0.001,2.243-0.001,4.486,0.001,6.73
					c0.001,0.811,0.249,1.059,1.06,1.059c1.91,0.001,3.821,0,5.731,0.001c0.458,0,0.479,0.021,0.481,0.483
					c0.003,0.887,0.002,1.775,0,2.662c-0.001,0.477-0.024,0.498-0.504,0.499c-3.895,0.001-7.79,0-11.684,0
					c-3.882,0-7.765,0-11.647,0c-0.55,0-0.552-0.001-0.552-0.561c-0.001-3.624-0.001-7.247,0-10.871
					C268.299,417.166,268.303,417.162,268.85,417.162z M292.135,451.579c-3.883,0.001-7.766,0-11.65,0c-3.871,0-7.742,0-11.613,0
					c-0.572,0-0.574-0.002-0.574-0.579c-0.001-1.997-0.001-3.994,0.001-5.991c0-0.464,0.023-0.486,0.478-0.487
					c7.803-0.001,15.607-0.001,23.41,0c0.478,0,0.499,0.02,0.499,0.503c0.001,1.997,0.001,3.994,0,5.991
					C292.687,451.574,292.682,451.579,292.135,451.579z"/>
			</g>
			<g>
				<path style="fill:#FFFFFF;" d="M272.966,434.183v1.831h3.165v1.412h-3.165v1.831h3.518v1.412h-5.007v-7.897h5.007v1.412H272.966
					z"/>
				<path style="fill:#FFFFFF;" d="M277.852,440.669v-7.897h2.779c0.375,0,0.726,0.061,1.053,0.182
					c0.327,0.121,0.612,0.292,0.855,0.513c0.243,0.221,0.434,0.483,0.574,0.789c0.14,0.305,0.209,0.642,0.209,1.009
					c0,0.375-0.07,0.715-0.209,1.02c-0.14,0.305-0.331,0.568-0.574,0.789c-0.243,0.221-0.528,0.392-0.855,0.513
					c-0.327,0.121-0.678,0.182-1.053,0.182h-1.29v2.901H277.852z M280.653,436.356c0.389,0,0.684-0.111,0.882-0.331
					c0.199-0.22,0.298-0.474,0.298-0.761c0-0.14-0.024-0.276-0.072-0.408c-0.048-0.132-0.121-0.248-0.221-0.347
					c-0.099-0.099-0.222-0.178-0.37-0.237c-0.147-0.059-0.32-0.089-0.518-0.089h-1.312v2.173H280.653z"/>
				<path style="fill:#FFFFFF;" d="M286.797,440.845c-0.338,0-0.662-0.048-0.971-0.143c-0.309-0.095-0.592-0.239-0.849-0.43
					c-0.257-0.191-0.482-0.425-0.673-0.7c-0.191-0.276-0.342-0.597-0.452-0.965l1.401-0.551c0.103,0.397,0.283,0.726,0.541,0.987
					c0.257,0.261,0.595,0.392,1.015,0.392c0.154,0,0.303-0.02,0.447-0.061c0.143-0.04,0.272-0.099,0.386-0.176
					c0.114-0.077,0.204-0.175,0.27-0.292c0.066-0.118,0.1-0.254,0.1-0.408c0-0.147-0.026-0.279-0.077-0.397
					c-0.051-0.117-0.138-0.227-0.259-0.331c-0.121-0.103-0.279-0.202-0.474-0.298c-0.195-0.095-0.436-0.195-0.723-0.298
					l-0.485-0.176c-0.213-0.073-0.428-0.173-0.645-0.298c-0.217-0.125-0.414-0.276-0.59-0.452c-0.176-0.176-0.322-0.384-0.436-0.623
					c-0.114-0.239-0.171-0.509-0.171-0.81c0-0.309,0.061-0.597,0.182-0.866c0.121-0.268,0.294-0.503,0.518-0.706
					c0.224-0.202,0.493-0.36,0.805-0.474c0.312-0.114,0.66-0.171,1.042-0.171c0.397,0,0.741,0.053,1.031,0.16
					c0.29,0.107,0.537,0.243,0.739,0.408c0.202,0.165,0.365,0.348,0.491,0.546c0.125,0.199,0.217,0.386,0.276,0.563l-1.312,0.551
					c-0.074-0.221-0.208-0.419-0.403-0.596c-0.195-0.176-0.462-0.265-0.799-0.265c-0.324,0-0.592,0.075-0.805,0.226
					c-0.213,0.151-0.32,0.348-0.32,0.59c0,0.235,0.103,0.436,0.309,0.601c0.206,0.165,0.533,0.325,0.982,0.48l0.496,0.165
					c0.316,0.111,0.605,0.237,0.866,0.381c0.261,0.143,0.485,0.314,0.673,0.513c0.187,0.199,0.331,0.425,0.43,0.678
					c0.099,0.254,0.149,0.546,0.149,0.877c0,0.412-0.083,0.767-0.248,1.064c-0.165,0.298-0.377,0.542-0.634,0.734
					c-0.258,0.191-0.548,0.335-0.872,0.43C287.422,440.797,287.105,440.845,286.797,440.845z"/>
			</g>
			<g>
				<path style="fill:#FFFFFF;" d="M321.394,439.168l4.004-4.985h-3.827v-1.412h5.559v1.5l-3.96,4.985h4.004v1.412h-5.779V439.168z"
					/>
				<path style="fill:#FFFFFF;" d="M328.409,432.771h1.489v7.897h-1.489V432.771z"/>
				<path style="fill:#FFFFFF;" d="M331.486,440.669v-7.897h2.779c0.375,0,0.726,0.061,1.053,0.182
					c0.327,0.121,0.612,0.292,0.855,0.513s0.434,0.483,0.574,0.789c0.14,0.305,0.209,0.642,0.209,1.009
					c0,0.375-0.07,0.715-0.209,1.02c-0.14,0.305-0.331,0.568-0.574,0.789c-0.243,0.221-0.528,0.392-0.855,0.513
					c-0.327,0.121-0.678,0.182-1.053,0.182h-1.29v2.901H331.486z M334.288,436.356c0.389,0,0.684-0.111,0.882-0.331
					c0.199-0.22,0.298-0.474,0.298-0.761c0-0.14-0.024-0.276-0.072-0.408c-0.048-0.132-0.121-0.248-0.221-0.347
					c-0.099-0.099-0.222-0.178-0.37-0.237c-0.147-0.059-0.32-0.089-0.518-0.089h-1.312v2.173H334.288z"/>
			</g>
		</g>
		<g style="opacity:0.61;">
			<path style="fill:#FFFFFF;" d="M300.133,433.27h9.067v2.242h-9.067V433.27z M300.133,437.136h9.067v2.243h-9.067V437.136z"/>
		</g>
	</g>
	<g style="opacity:0.61;">
		<path style="fill:#FFFFFF;" d="M156.756,478.878h1.607c1.263,0,2.114,0.812,2.114,1.974c0,1.161-0.851,1.973-2.114,1.973h-1.607
			V478.878z M158.34,482.464c1.049,0,1.725-0.665,1.725-1.612c0-0.947-0.677-1.613-1.725-1.613h-1.167v3.225H158.34z"/>
		<path style="fill:#FFFFFF;" d="M165.139,480.851c0-1.15,0.879-2.007,2.075-2.007c1.184,0,2.069,0.851,2.069,2.007
			c0,1.156-0.885,2.007-2.069,2.007C166.019,482.858,165.139,482.002,165.139,480.851z M168.866,480.851
			c0-0.942-0.705-1.635-1.652-1.635c-0.953,0-1.663,0.693-1.663,1.635c0,0.941,0.71,1.635,1.663,1.635
			C168.162,482.486,168.866,481.793,168.866,480.851z"/>
		<path style="fill:#FFFFFF;" d="M179.596,478.878l-1.331,3.947h-0.44l-1.156-3.366l-1.161,3.366h-0.434l-1.331-3.947h0.429
			l1.139,3.394l1.178-3.394h0.389l1.161,3.411l1.156-3.411H179.596z"/>
		<path style="fill:#FFFFFF;" d="M187.731,478.878v3.947h-0.344l-2.537-3.202v3.202h-0.417v-3.947h0.344l2.543,3.203v-3.203H187.731
			z"/>
		<path style="fill:#FFFFFF;" d="M193.093,478.878h0.417v3.586h2.21v0.361h-2.627V478.878z"/>
		<path style="fill:#FFFFFF;" d="M200.061,480.851c0-1.15,0.879-2.007,2.075-2.007c1.184,0,2.069,0.851,2.069,2.007
			c0,1.156-0.885,2.007-2.069,2.007C200.941,482.858,200.061,482.002,200.061,480.851z M203.788,480.851
			c0-0.942-0.705-1.635-1.652-1.635c-0.953,0-1.663,0.693-1.663,1.635c0,0.941,0.71,1.635,1.663,1.635
			C203.083,482.486,203.788,481.793,203.788,480.851z"/>
		<path style="fill:#FFFFFF;" d="M211.636,481.77h-2.199l-0.474,1.054h-0.434l1.804-3.947h0.412l1.804,3.947h-0.44L211.636,481.77z
			 M211.484,481.432l-0.947-2.12l-0.947,2.12H211.484z"/>
		<path style="fill:#FFFFFF;" d="M217.28,478.878h1.607c1.263,0,2.114,0.812,2.114,1.974c0,1.161-0.851,1.973-2.114,1.973h-1.607
			V478.878z M218.864,482.464c1.049,0,1.725-0.665,1.725-1.612c0-0.947-0.677-1.613-1.725-1.613h-1.167v3.225H218.864z"/>
		<path style="fill:#FFFFFF;" d="M234.041,481.77h-2.199l-0.474,1.054h-0.434l1.804-3.947h0.412l1.804,3.947h-0.44L234.041,481.77z
			 M233.889,481.432l-0.947-2.12l-0.947,2.12H233.889z"/>
		<path style="fill:#FFFFFF;" d="M239.685,478.878h0.417v3.586h2.21v0.361h-2.627V478.878z"/>
		<path style="fill:#FFFFFF;" d="M247.082,478.878h0.417v3.586h2.21v0.361h-2.627V478.878z"/>
		<path style="fill:#FFFFFF;" d="M260.449,479.239v1.551h2.041v0.361h-2.041v1.675h-0.417v-3.947h2.706v0.361H260.449z"/>
		<path style="fill:#FFFFFF;" d="M267.678,478.878h0.417v3.947h-0.417V478.878z"/>
		<path style="fill:#FFFFFF;" d="M273.456,478.878h0.417v3.586h2.21v0.361h-2.627V478.878z"/>
		<path style="fill:#FFFFFF;" d="M283.644,482.464v0.361h-2.791v-3.947h2.706v0.361h-2.289v1.404h2.041v0.355h-2.041v1.466H283.644z
			"/>
		<path style="fill:#FFFFFF;" d="M294.672,479.239v1.551h2.041v0.361h-2.041v1.675h-0.417v-3.947h2.706v0.361H294.672z"/>
		<path style="fill:#FFFFFF;" d="M301.5,480.851c0-1.15,0.879-2.007,2.075-2.007c1.184,0,2.069,0.851,2.069,2.007
			c0,1.156-0.885,2.007-2.069,2.007C302.379,482.858,301.5,482.002,301.5,480.851z M305.226,480.851
			c0-0.942-0.705-1.635-1.652-1.635c-0.953,0-1.663,0.693-1.663,1.635c0,0.941,0.71,1.635,1.663,1.635
			C304.522,482.486,305.226,481.793,305.226,480.851z"/>
		<path style="fill:#FFFFFF;" d="M313.351,482.825l-0.902-1.269c-0.102,0.011-0.203,0.017-0.316,0.017h-1.06v1.252h-0.417v-3.947
			h1.477c1.004,0,1.613,0.507,1.613,1.353c0,0.62-0.327,1.054-0.902,1.24l0.964,1.353H313.351z M313.328,480.231
			c0-0.632-0.417-0.992-1.207-0.992h-1.048v1.979h1.048C312.911,481.218,313.328,480.851,313.328,480.231z"/>
		<path style="fill:#FFFFFF;" d="M322.907,478.878v3.947h-0.4v-3.158l-1.551,2.656h-0.197l-1.551-2.639v3.14h-0.4v-3.947h0.344
			l1.714,2.926l1.697-2.926H322.907z"/>
		<path style="fill:#FFFFFF;" d="M330.744,481.77h-2.199l-0.473,1.054h-0.434l1.804-3.947h0.411l1.804,3.947h-0.44L330.744,481.77z
			 M330.592,481.432l-0.947-2.12l-0.947,2.12H330.592z"/>
		<path style="fill:#FFFFFF;" d="M336.957,479.239h-1.387v-0.361h3.192v0.361h-1.387v3.586h-0.417V479.239z"/>
		<path style="fill:#FFFFFF;" d="M343.063,482.346l0.164-0.321c0.282,0.276,0.784,0.479,1.302,0.479c0.739,0,1.06-0.31,1.06-0.699
			c0-1.083-2.43-0.417-2.43-1.877c0-0.581,0.451-1.083,1.455-1.083c0.446,0,0.908,0.13,1.224,0.35l-0.141,0.333
			c-0.338-0.22-0.733-0.327-1.083-0.327c-0.722,0-1.043,0.321-1.043,0.716c0,1.083,2.43,0.429,2.43,1.866
			c0,0.581-0.462,1.077-1.472,1.077C343.937,482.858,343.356,482.65,343.063,482.346z"/>
	</g>
</g>
<g>
</g>
<g>
	<g>
		<path style="fill:#017EC0;" d="M106.629,231.706v-45.554c0.018-0.608-0.462-1.117-1.072-1.135c-0.017-0.001-0.033-0.001-0.05,0
			c-0.12-0.023-0.243-0.023-0.363,0l-73.14,32.475c-6.008,2.649-7.477,6.613-7.477,9.41v47.248c0-2.682,1.354-6.432,6.735-9.065
			c25.161-11.132,50.323-22.264,75.484-33.396"/>
		<path style="fill:#0E406C;" d="M106.629,273.098v-41.391c-22.328,9.876-44.655,19.752-66.983,29.629
			c-2.784,1.25-5.568,2.501-8.352,3.751c-5.414,2.632-6.768,6.383-6.768,9.065v39.713c-0.009,0.609,0.478,1.11,1.089,1.119
			c0.011,0,0.022,0,0.033,0c0.12,0.024,0.243,0.024,0.363,0l73.156-32.475c5.992-2.649,7.477-6.581,7.477-9.41"/>
	</g>
	<path style="fill:#FFFFFF;" d="M49.423,226.573v9.108c-0.094-0.014-0.773-0.107-1.302,0.377c-0.344,0.315-0.438,0.702-0.465,0.847
		c0,0,0,5.166,0,7.749c0.123,0.151,0.353,0.394,0.714,0.578c0.442,0.225,0.85,0.243,1.054,0.238c0,3.036,0,6.072,0,9.108h-3.738
		c-0.718-0.1-2.423-0.437-4.01-1.801c-1.973-1.696-2.46-3.858-2.583-4.52c0-4.951,0-9.901,0-14.852
		c0.029-0.578,0.206-2.729,1.937-4.588c1.679-1.803,3.73-2.161,4.316-2.243C46.704,226.573,48.064,226.573,49.423,226.573z"/>
	<path style="fill:#FFFFFF;" d="M49.423,264.092v9.535h-9.017c-0.167-0.014-0.415-0.063-0.657-0.223
		c-0.676-0.449-0.66-1.349-0.657-1.427c0-2.044,0-4.088,0-6.133c0.042-0.234,0.145-0.608,0.43-0.959
		c0.693-0.854,1.831-0.802,1.971-0.793C44.136,264.092,46.78,264.092,49.423,264.092z"/>
	<polygon style="fill:#FFFFFF;" points="62.337,226.573 73.303,226.573 68.772,235.726 62.337,235.726 	"/>
	<path style="fill:#FFFFFF;" d="M87.713,226.573l-4.531,9.153h7.794c0.121-0.004,0.622-0.033,1.048-0.436
		c0.422-0.399,0.482-0.892,0.493-1.014c0-2.017,0-4.034,0-6.051c-0.012-0.159-0.073-0.732-0.544-1.194
		c-0.305-0.299-0.643-0.414-0.816-0.459C90.009,226.573,88.861,226.573,87.713,226.573z"/>
	<path style="fill:#FFFFFF;" d="M75.524,248.799l3.331,5.778h4.01c0.135,0.001,0.566,0.021,0.952,0.34
		c0.54,0.446,0.545,1.108,0.544,1.2c0,1.956,0,3.913,0,5.869c0.027,0.23,0.05,0.696-0.159,1.224
		c-0.173,0.436-0.429,0.725-0.589,0.88c1.654,3.18,3.308,6.359,4.962,9.539c0.582-0.292,1.614-0.905,2.515-2.059
		c0.966-1.237,1.3-2.478,1.427-3.127c0-5.981,0-11.963,0-17.944c-0.143-0.57-0.629-2.185-2.175-3.466
		c-1.265-1.048-2.592-1.335-3.195-1.427c-3.217,0-6.435,0-9.652,0L75.524,248.799z"/>
	<polygon style="fill:#FFFFFF;" points="62.337,264.089 62.337,273.628 73.847,273.628 69.134,264.089 	"/>
	<path style="fill:#FFFFFF;" d="M65.328,244.585c0.266-0.085,0.702-0.264,1.122-0.646c0.278-0.252,0.461-0.514,0.578-0.714
		c3.013-5.732,6.027-11.464,9.04-17.197c0.247-0.417,0.691-1.043,1.427-1.597c0.501-0.377,0.986-0.606,1.359-0.747
		c1.722,0,3.444,0,5.166,0c0.093,0.004,1.031,0.062,1.563,0.883c0.387,0.596,0.412,1.367,0.068,2.005
		c-4.116,7.431-8.232,14.863-12.348,22.294l13.843,25.421c0.016,0.087,0.213,1.278-0.612,2.005c-0.345,0.304-0.73,0.405-0.952,0.442
		c-2.198,0-4.395,0-6.593,0c-0.311-0.154-0.694-0.381-1.088-0.714c-0.524-0.443-0.87-0.909-1.088-1.258
		c-3.466-6.548-6.933-13.096-10.399-19.643c-0.115-0.174-0.31-0.421-0.612-0.646c-0.369-0.275-0.732-0.39-0.952-0.442
		c-1.427,0-2.855,0-4.282,0v20.731c-0.004,0.106-0.057,1.167-0.918,1.699c-0.386,0.238-0.773,0.272-0.985,0.272
		c-1.835,0-3.67,0-5.506,0c-0.088,0.007-0.877,0.052-1.427-0.578c-0.485-0.555-0.42-1.217-0.408-1.325c0-16.268,0-32.535,0-48.803
		c-0.012-0.162-0.05-0.929,0.51-1.597c0.469-0.559,1.07-0.708,1.258-0.747c1.926,0,3.852,0,5.777,0
		c0.17,0.04,0.609,0.169,0.969,0.577c0.492,0.558,0.467,1.221,0.459,1.359c0,6.299,0,12.597,0,18.896L65.328,244.585z"/>
	<g>
		<path style="fill:#3C3C3B;" d="M135.661,263.631c0,0.317-0.102,0.59-0.303,0.82c-0.203,0.23-0.463,0.345-0.78,0.345h-2.861
			c-0.318,0-0.571-0.107-0.759-0.323c-0.188-0.216-0.282-0.496-0.282-0.842v-28.314c0-0.345,0.094-0.625,0.282-0.842
			c0.188-0.216,0.455-0.323,0.802-0.323h2.905c0.664,0,0.997,0.374,0.997,1.122v11.481h3.034c0.895,0,1.546-0.273,1.951-0.82
			l7.195-10.876c0.404-0.632,0.896-0.95,1.474-0.95c1.242,0,2.225,0.043,2.948,0.13c0.52,0.029,0.78,0.288,0.78,0.777
			c0,0.345-0.145,0.719-0.433,1.122c-4.277,6.417-7.138,10.618-8.583,12.603c1.04,1.439,4.161,6.057,9.363,13.855
			c0.375,0.547,0.564,0.993,0.564,1.338c0,0.172-0.073,0.339-0.217,0.496c-0.145,0.158-0.318,0.252-0.52,0.281
			c-0.723,0.057-1.893,0.086-3.511,0.086c-0.549,0-1.012-0.287-1.387-0.863l-8.062-12.085c-0.318-0.489-0.882-0.733-1.691-0.733
			h-2.904V263.631z"/>
		<path style="fill:#3C3C3B;" d="M182.345,249.258c0,2.303-0.174,4.482-0.521,6.539c-0.346,2.058-0.982,3.784-1.907,5.18
			c-0.925,1.396-2.211,2.46-3.858,3.194c-1.647,0.734-3.901,1.101-6.762,1.101c-2.197,0-4.082-0.252-5.657-0.756
			c-1.576-0.503-2.883-1.345-3.923-2.525c-1.04-1.179-1.82-2.812-2.341-4.898c-0.52-2.086-0.78-4.683-0.78-7.791
			c0-3.826,0.484-6.877,1.452-9.15c0.968-2.272,2.377-3.92,4.227-4.942c1.849-1.021,4.305-1.532,7.369-1.532
			c2.861,0,5.072,0.302,6.632,0.906c1.56,0.605,2.767,1.526,3.62,2.762c0.852,1.238,1.474,2.813,1.864,4.726
			C182.15,243.985,182.345,246.381,182.345,249.258z M177.187,249.345c0-1.784-0.094-3.431-0.282-4.942
			c-0.189-1.51-0.542-2.747-1.062-3.711c-0.521-0.964-1.25-1.669-2.189-2.115c-0.939-0.446-2.334-0.669-4.183-0.669
			c-2.341,0-4.031,0.49-5.071,1.468c-1.04,0.979-1.749,2.309-2.124,3.993c-0.376,1.683-0.564,3.662-0.564,5.934
			c0,2.417,0.18,4.496,0.542,6.237c0.361,1.741,1.04,3.093,2.037,4.057c0.997,0.965,2.694,1.446,5.093,1.446
			c2.023,0,3.561-0.345,4.616-1.036c1.055-0.691,1.849-1.878,2.384-3.56C176.919,254.761,177.187,252.395,177.187,249.345z"/>
		<path style="fill:#3C3C3B;" d="M206.793,264.709h-13.394c-1.445,0-2.536-0.338-3.273-1.014c-0.737-0.676-1.105-1.733-1.105-3.172
			v-25.206c0-0.345,0.094-0.625,0.282-0.842c0.188-0.216,0.455-0.323,0.802-0.323h2.905c0.664,0,0.997,0.374,0.997,1.122v23.393
			c0,1.094,0.535,1.64,1.604,1.64h11.184c0.347,0,0.614,0.072,0.802,0.217c0.188,0.144,0.282,0.432,0.282,0.863v2.374
			C207.876,264.393,207.515,264.709,206.793,264.709z"/>
		<path style="fill:#3C3C3B;" d="M221.271,264.709h-4.682c-1.474,0-2.565-0.345-3.272-1.036c-0.709-0.691-1.062-1.797-1.062-3.323
			v-21.58c0-3.02,1.431-4.532,4.292-4.532h4.941c1.589,0,3.135,0.086,4.638,0.259c2.398,0.258,4.168,0.986,5.31,2.18
			c1.141,1.194,1.712,2.899,1.712,5.114c0,1.871-0.368,3.367-1.105,4.489c-0.737,1.122-1.871,1.943-3.403,2.46
			c1.734,0.404,3.078,1.166,4.031,2.288c0.954,1.122,1.431,2.733,1.431,4.833c0,1.929-0.347,3.576-1.04,4.943
			c-0.694,1.367-1.806,2.352-3.338,2.956C228.105,264.393,225.287,264.709,221.271,264.709z M217.24,246.927h4.811
			c2.023,0,3.338-0.144,3.945-0.432c0.635-0.258,1.149-0.726,1.539-1.403c0.39-0.675,0.585-1.489,0.585-2.438
			c0-0.92-0.173-1.727-0.52-2.418c-0.347-0.691-1.07-1.222-2.167-1.596c-0.694-0.201-1.836-0.303-3.425-0.303h-3.424
			c-0.347,0-0.658,0.094-0.932,0.281c-0.275,0.188-0.412,0.626-0.412,1.317V246.927z M217.24,250.984v7.812
			c0,0.46,0.094,0.856,0.282,1.187c0.188,0.331,0.643,0.496,1.365,0.496h3.554c2.022,0,3.424-0.158,4.204-0.475
			c1.589-0.661,2.384-2.186,2.384-4.575c0-1.956-0.824-3.265-2.471-3.928c-0.838-0.345-2.269-0.518-4.291-0.518H217.24z"/>
		<path style="fill:#3C3C3B;" d="M258.245,264.709h-13.481c-1.503,0-2.622-0.338-3.36-1.014c-0.737-0.676-1.105-1.806-1.105-3.389
			V238.77c0-1.554,0.354-2.697,1.062-3.431c0.707-0.734,1.827-1.101,3.359-1.101h12.831c0.347,0,0.613,0.072,0.802,0.216
			c0.188,0.144,0.282,0.418,0.282,0.82v2.46c0,0.604-0.362,0.906-1.084,0.906h-10.88c-0.925,0-1.387,0.532-1.387,1.596v6.474h11.097
			c0.751,0,1.127,0.345,1.127,1.036v2.417c0,0.633-0.376,0.95-1.127,0.95h-11.097v7.51c0,0.431,0.094,0.82,0.282,1.165
			c0.188,0.345,0.643,0.518,1.365,0.518h11.313c0.751,0,1.127,0.36,1.127,1.08v2.374
			C259.372,264.393,258.996,264.709,258.245,264.709z"/>
		<path style="fill:#3C3C3B;" d="M270.209,263.631c0,0.345-0.102,0.626-0.303,0.842c-0.203,0.216-0.477,0.323-0.824,0.323h-2.687
			c-0.318,0-0.571-0.107-0.759-0.323c-0.188-0.216-0.282-0.496-0.282-0.842v-26.069c0-1.18,0.267-2.057,0.802-2.632
			c0.535-0.575,1.38-0.863,2.536-0.863h1.344c0.722,0,1.315,0.129,1.777,0.388c0.462,0.259,0.982,0.965,1.56,2.115
			c0.202,0.374,0.556,1.051,1.062,2.029c0.505,0.979,1.914,3.683,4.226,8.114c2.312,4.431,4.248,8.388,5.809,11.869
			c-0.058-2.474-0.087-10.157-0.087-23.048c0-0.373,0.094-0.697,0.282-0.97c0.188-0.273,0.484-0.41,0.889-0.41h2.558
			c0.693,0,1.04,0.432,1.04,1.294v26.717c0,0.835-0.196,1.518-0.585,2.05c-0.391,0.532-1.135,0.798-2.233,0.798h-1.127
			c-0.752,0-1.394-0.137-1.929-0.41c-0.535-0.272-1.148-1.085-1.842-2.438c-0.203-0.403-0.592-1.151-1.171-2.244
			c-0.578-1.093-2.066-3.949-4.464-8.568c-2.399-4.618-4.291-8.423-5.678-11.416C270.179,244.367,270.209,252.265,270.209,263.631z"
			/>
		<path style="fill:#3C3C3B;" d="M308.743,247.618c2.745,0.777,4.63,1.756,5.657,2.935c1.025,1.18,1.539,3.007,1.539,5.481
			c0,2.216-0.42,3.985-1.257,5.308c-0.838,1.324-2.066,2.309-3.684,2.956c-1.619,0.647-3.7,0.971-6.242,0.971
			c-1.387,0-2.882-0.101-4.486-0.302c-1.604-0.202-3.056-0.518-4.356-0.95c-0.666-0.23-0.997-0.604-0.997-1.122
			c0-0.489,0.158-1.236,0.477-2.244c0.202-0.661,0.607-0.993,1.214-0.993c0.26,0,0.736,0.116,1.43,0.345
			c2.138,0.691,4.406,1.036,6.805,1.036c2.109,0,3.634-0.359,4.573-1.079c0.939-0.719,1.408-1.827,1.408-3.324
			c0-1.266-0.354-2.208-1.062-2.827c-0.708-0.619-1.944-1.157-3.706-1.619l-3.901-0.993c-2.254-0.575-3.938-1.554-5.049-2.935
			c-1.113-1.381-1.669-3.222-1.669-5.524c0-2.158,0.418-3.884,1.257-5.18c0.838-1.294,2.044-2.266,3.62-2.913
			c1.575-0.647,3.576-0.971,6.004-0.971c1.184,0,2.492,0.072,3.922,0.216c1.431,0.144,2.651,0.374,3.663,0.691
			c0.635,0.202,0.953,0.59,0.953,1.166c0,0.489-0.145,1.208-0.433,2.157c-0.146,0.576-0.463,0.863-0.954,0.863
			c-0.26,0-0.723-0.071-1.387-0.216c-2.196-0.402-4.233-0.604-6.112-0.604c-1.82,0-3.179,0.331-4.074,0.993
			c-0.896,0.662-1.344,1.769-1.344,3.323c0,1.295,0.383,2.252,1.149,2.87c0.765,0.619,1.843,1.116,3.229,1.489L308.743,247.618z"/>
		<path style="fill:#3C3C3B;" d="M325.474,249.301c0,1.985,0.116,3.691,0.347,5.115c0.231,1.424,0.642,2.632,1.235,3.625
			c0.592,0.993,1.416,1.742,2.471,2.244c1.055,0.504,2.376,0.756,3.966,0.756c0.982,0,1.929-0.05,2.839-0.151
			c0.911-0.101,2.016-0.309,3.316-0.626c0.607-0.173,1.084-0.259,1.431-0.259c0.375,0,0.635,0.202,0.78,0.605
			c0.318,0.892,0.477,1.655,0.477,2.287c0,0.49-0.332,0.849-0.997,1.08c-2.486,0.863-5.476,1.294-8.972,1.294
			c-1.937,0-3.642-0.259-5.115-0.777c-1.474-0.518-2.724-1.359-3.749-2.525c-1.026-1.165-1.806-2.747-2.341-4.747
			c-0.535-2-0.802-4.424-0.802-7.273c0-2.877,0.223-5.337,0.672-7.381c0.447-2.043,1.177-3.719,2.188-5.028s2.355-2.28,4.032-2.913
			c1.675-0.633,3.742-0.95,6.199-0.95c3.062,0,5.462,0.216,7.195,0.647c0.722,0.173,1.084,0.533,1.084,1.08
			c0,0.258-0.051,0.676-0.151,1.251c-0.102,0.576-0.224,1.036-0.369,1.381c-0.029,0.058-0.101,0.158-0.216,0.302
			c-0.116,0.144-0.318,0.216-0.607,0.216c-0.289,0-0.766-0.071-1.431-0.216c-1.359-0.287-3.077-0.432-5.158-0.432
			c-2.081,0-3.721,0.374-4.92,1.122c-1.199,0.749-2.066,1.899-2.601,3.453C325.741,244.035,325.474,246.309,325.474,249.301z"/>
		<path style="fill:#3C3C3B;" d="M351.83,263.631c0,0.317-0.102,0.59-0.304,0.82c-0.203,0.23-0.462,0.345-0.78,0.345h-2.861
			c-0.318,0-0.571-0.107-0.759-0.323c-0.188-0.216-0.281-0.496-0.281-0.842v-28.314c0-0.345,0.093-0.625,0.281-0.842
			c0.188-0.216,0.455-0.323,0.802-0.323h2.904c0.665,0,0.998,0.374,0.998,1.122v11.437h13.133v-11.394
			c0-0.777,0.375-1.165,1.127-1.165h2.905c0.635,0,0.953,0.374,0.953,1.122v28.356c0,0.317-0.101,0.59-0.303,0.82
			c-0.203,0.23-0.463,0.345-0.781,0.345h-2.818c-0.318,0-0.578-0.107-0.78-0.323c-0.203-0.216-0.304-0.496-0.304-0.842v-12.517
			H351.83V263.631z"/>
		<path style="fill:#3C3C3B;" d="M382.735,263.631c0,0.777-0.347,1.165-1.04,1.165h-2.905c-0.289,0-0.52-0.107-0.694-0.323
			c-0.173-0.216-0.26-0.496-0.26-0.842v-25.767c0-0.834,0.122-1.546,0.368-2.137c0.245-0.589,0.65-1.014,1.214-1.273
			c0.564-0.259,1.22-0.388,1.972-0.388h1.127c0.896,0,1.568,0.137,2.015,0.409c0.448,0.274,0.809,0.691,1.084,1.252
			s0.6,1.288,0.976,2.18c3.062,7.28,4.97,12.028,5.721,14.243c1.011-2.791,2.905-7.539,5.679-14.243
			c0.461-1.18,0.838-1.992,1.126-2.438c0.289-0.446,0.672-0.792,1.149-1.036s1.12-0.367,1.929-0.367h1.257
			c1.011,0,1.792,0.216,2.341,0.647s0.824,1.482,0.824,3.151v25.637c0,0.403-0.094,0.719-0.282,0.949
			c-0.188,0.23-0.455,0.345-0.801,0.345h-2.861c-0.665,0-0.997-0.417-0.997-1.252c0-13.235,0.043-21.378,0.13-24.429
			c-0.117,0.317-0.289,0.814-0.521,1.49c-0.232,0.676-0.636,1.769-1.213,3.28c-0.579,1.511-2.298,5.805-5.159,12.883
			c-0.318,0.806-0.636,1.375-0.953,1.705c-0.318,0.331-0.766,0.496-1.344,0.496h-0.65c-0.434,0-0.846-0.114-1.236-0.345
			c-0.39-0.231-0.759-0.806-1.105-1.727c-0.232-0.546-0.621-1.51-1.171-2.892s-1.424-3.568-2.622-6.56
			c-1.199-2.993-2.276-5.769-3.229-8.33C382.692,242.223,382.735,250.395,382.735,263.631z"/>
		<path style="fill:#3C3C3B;" d="M419.493,263.631c0,0.317-0.102,0.59-0.304,0.82c-0.203,0.23-0.462,0.345-0.78,0.345h-2.861
			c-0.318,0-0.571-0.107-0.759-0.323c-0.188-0.216-0.281-0.496-0.281-0.842v-28.314c0-0.345,0.093-0.625,0.281-0.842
			c0.188-0.216,0.455-0.323,0.802-0.323h2.904c0.665,0,0.998,0.374,0.998,1.122V263.631z"/>
		<path style="fill:#3C3C3B;" d="M435.402,264.709h-3.728c-1.474,0-2.557-0.345-3.251-1.036c-0.694-0.691-1.04-1.783-1.04-3.28
			v-21.667c0-1.525,0.361-2.655,1.084-3.388c0.722-0.734,1.82-1.101,3.294-1.101h4.074c3.525,0,6.213,0.274,8.062,0.82
			c5.115,1.468,7.672,6.157,7.672,14.07c0,1.381-0.08,2.783-0.238,4.207c-0.159,1.425-0.492,2.784-0.998,4.079
			c-0.506,1.295-1.272,2.49-2.297,3.582c-1.027,1.094-2.45,1.985-4.27,2.676c-0.752,0.288-1.858,0.533-3.316,0.734
			C438.992,264.609,437.308,264.709,435.402,264.709z M432.368,258.624c0,0.431,0.093,0.82,0.281,1.165
			c0.187,0.345,0.629,0.518,1.322,0.518h2.817c2.196,0,3.916-0.287,5.159-0.863c1.675-0.777,2.839-1.992,3.489-3.647
			c0.65-1.654,0.976-3.863,0.976-6.625c0-2.56-0.297-4.64-0.889-6.236c-0.592-1.597-1.698-2.755-3.316-3.475
			c-1.243-0.575-3.121-0.863-5.635-0.863h-2.774c-0.953,0-1.43,0.547-1.43,1.64V258.624z"/>
		<path style="fill:#3C3C3B;" d="M466.959,263.631c0,0.345-0.108,0.626-0.321,0.842c-0.214,0.216-0.489,0.323-0.825,0.323h-3.026
			c-0.337,0-0.612-0.108-0.826-0.323c-0.214-0.216-0.321-0.496-0.321-0.842v-24.663c0-0.18-0.155-0.326-0.345-0.326h-6.803
			c-0.238,0-0.43-0.183-0.428-0.408c0.01-1.198,0.02-2.396,0.029-3.593c0.002-0.222,0.193-0.402,0.428-0.402h20.608
			c0.251,0,0.418,0.246,0.314,0.462l-1.806,3.75c-0.056,0.116-0.179,0.191-0.314,0.191h-6.017c-0.191,0-0.345,0.146-0.345,0.327
			V263.631z"/>
	</g>
</g>
</svg>
