<?xml version="1.0" encoding="utf-8"?>
<!-- Generator: Adobe Illustrator 19.0.0, SVG Export Plug-In . SVG Version: 6.00 Build 0)  -->
<svg version="1.1" id="layer" xmlns="http://www.w3.org/2000/svg" xmlns:xlink="http://www.w3.org/1999/xlink" x="0px" y="0px"
	 viewBox="-153 -46 652 652" style="enable-background:new -153 -46 652 652;" xml:space="preserve">
<style type="text/css">
	.st0{fill:#FCCF00;}
	.st1{fill-rule:evenodd;clip-rule:evenodd;fill:#231815;}
	.st2{fill-rule:evenodd;clip-rule:evenodd;fill:#FFFFFF;}
	.st3{fill:#231815;}
</style>
<rect x="-131.5" y="105.6" class="st0" width="600" height="339.5"/>
<g>
	<path class="st1" d="M-65,257.3l201.8-115.5c17.6-10.1,46.3-10.1,63.9,0l201.7,115.5c17.6,10.1,17.6,26.5,0,36.6L200.8,409.4
		c-17.6,10.1-46.3,10.1-63.9,0L-65,293.9C-82.5,283.8-82.5,267.4-65,257.3"/>
	<polygon class="st2" points="218.3,248.2 267.9,248.2 267.9,259.1 248.9,259.1 248.9,303.1 237.9,303.1 237.9,259.1 218.3,259.1 	
		"/>
	<path class="st2" d="M154.8,292.1h46.7c0.5,0,1.1-0.2,1.7-0.6c0.7-0.3,1-1,1-2.1V284c0-1.2-0.1-1.9-0.7-2.2c-0.6-0.6-1.2-0.7-2-0.7
		h-43.8c-0.9,0-1.6-0.2-2-0.7c-0.5-0.3-0.9-1.3-0.9-2v-22c0-1.5,0.3-3,0.7-4.2c0.3-1,1.2-2,2.3-2.9c1.2-0.7,2.9-1.2,5.2-1.2h50.3
		v10.9h-44.6c-0.9,0-1.6,0.2-2.2,0.7c-0.4,0.3-0.7,1-0.7,2.2v5.4c0,1.2,0.2,1.9,0.9,2.3c0.7,0.3,1.2,0.4,1.7,0.4H207
		c2.9,0,5,0.7,6.3,2.3c1.3,1.3,2,3.4,2,6.1v16.5c0,1-0.3,2.2-1,3.6c-0.6,1.4-1.6,2.4-2.7,3.3c-1.3,1-2.7,1.3-4.6,1.3h-52.1V292.1z"
		/>
	<path class="st2" d="M88.1,256.4c0-1.5,0.2-3,0.7-4.2c0.3-1,1-2,2.3-2.9c1.2-0.7,2.9-1.1,5.3-1.1h49.9v10.9H102c-1,0-1.6,0.2-2,0.7
		c-0.6,0.3-0.9,1-0.9,2.2v8.1h38.5v11H99.1v8.3c0,1,0.3,1.7,0.9,2.1c0.4,0.3,1,0.6,2,0.6h44.3v11H96.4c-2.3,0-4-0.3-5.3-1.2
		c-1.3-0.7-2-1.7-2.3-2.9c-0.5-1.1-0.7-2.5-0.7-4V256.4z"/>
	<path class="st2" d="M66.7,264.4l-21.1,17.5c-1.4,1.5-2.2,2-3.7,2.2h-0.6h-0.7c-1.6-0.2-2.3-0.8-3.7-2.2l-21.1-17.5v38.8h-11v-47
		v-1.2c0-4.1,3.4-7.4,7.4-7.4c0.6,0,3.1,0.5,4.5,1.6l24.6,21.4L65.8,249c1.3-1.1,3.9-1.6,4.5-1.6c4.1,0,7.4,3.4,7.4,7.4v1.2v47h-11
		V264.4z"/>
	<path class="st2" d="M301.2,259.1h-15.8c-0.7,0-1.4,0.2-2,0.7c-0.4,0.3-0.7,1-0.7,2.2v27.4c0,1,0.2,1.7,0.7,2.1
		c0.6,0.3,1.3,0.6,2,0.6h15.8h0.8h16.1c0.9,0,1.6-0.2,2-0.6c0.6-0.3,0.8-1.1,0.8-2.1V262c0-1.2-0.2-1.9-0.8-2.2
		c-0.4-0.5-1.1-0.7-2-0.7H302h-0.2H301.2z M302,248.2h21.8c3.5,0,5.7,0.8,6.7,2.2c1,1.6,1.6,3.6,1.6,6v38.5c0,1.6-0.2,2.9-0.6,4.1
		c-0.3,1.2-1.2,2.3-2.5,2.9c-1.1,0.9-3,1.2-5.3,1.2H302h-0.2h-0.6H280c-2.4,0-4.1-0.3-5.4-1.2c-1.1-0.7-2-1.7-2.3-2.9
		c-0.3-1.1-0.6-2.5-0.6-4.1v-38.5c0-1.5,0.2-3,0.6-4.1c0.3-1,1.2-2,2.3-2.9c1.2-0.7,3-1.1,5.4-1.1h21.2h0.6H302z"/>
	<path class="st3" d="M406.4,204.3c-11.3,0-20.5,9.1-20.5,20.5c0,11.3,9.1,20.5,20.5,20.5c11.3,0,20.5-9.2,20.5-20.5
		C426.9,213.5,417.7,204.3,406.4,204.3 M406.5,241.9c-9.5,0-17.2-7.7-17.2-17.2c0-9.5,7.7-17.2,17.2-17.2c9.5,0,17.2,7.7,17.2,17.2
		C423.7,234.2,416,241.9,406.5,241.9"/>
	<path class="st3" d="M397.4,212.2l11.1,0c5.1,0,7.3,1.5,7.5,5.7v3.6c0,2.6-0.7,3.1-1.7,4.3c1.4,1,1.7,2.1,1.7,4.8v6h-4.2l0-4.9
		c0-2.5,0.3-4-2.8-4l-7.4,0v8.8h-4V212.2z M401.5,216.2l0,7.5h6.8c1.2,0,3.5,0.3,3.5-2.2l0-3.1c-0.1-1.5-0.1-2.1-3.4-2.2
		L401.5,216.2z"/>
</g>
</svg>
