<?xml version="1.0" encoding="utf-8"?>
<!-- Generator: Adobe Illustrator 19.2.1, SVG Export Plug-In . SVG Version: 6.00 Build 0)  -->
<svg version="1.1" id="layer" xmlns="http://www.w3.org/2000/svg" xmlns:xlink="http://www.w3.org/1999/xlink" x="0px" y="0px"
	 viewBox="0 0 652 652" style="enable-background:new 0 0 652 652;" xml:space="preserve">
<style type="text/css">
	.st0{fill:url(#Pfad_142_1_);}
	.st1{fill:url(#Pfad_143_1_);}
	.st2{fill:url(#Pfad_144_1_);}
	.st3{fill:#1E55A3;}
	.st4{fill:url(#Pfad_146_1_);}
	.st5{fill:url(#Pfad_147_1_);}
	.st6{fill:#F2001A;}
	.st7{fill:#BA65A5;}
	.st8{fill:url(#Pfad_152_1_);}
</style>
<g id="MVV_Logo_farbig_rot_RGB" transform="translate(-2.634 -0.5)">
	<g id="Gruppe_120" transform="translate(2.634 0.5)">
		
			<linearGradient id="Pfad_142_1_" gradientUnits="userSpaceOnUse" x1="173.4632" y1="473.6292" x2="179.8739" y2="473.6292" gradientTransform="matrix(31.6897 0 0 -26.1064 -5377.7583 12618.0303)">
			<stop  offset="0" style="stop-color:#F2001A;stop-opacity:0.2"/>
			<stop  offset="0.106" style="stop-color:#E40523;stop-opacity:0.212"/>
			<stop  offset="0.303" style="stop-color:#C1143A;stop-opacity:0.231"/>
			<stop  offset="0.572" style="stop-color:#872B5F;stop-opacity:0.259"/>
			<stop  offset="0.899" style="stop-color:#384B92;stop-opacity:0.29"/>
			<stop  offset="1" style="stop-color:#1E55A3;stop-opacity:0.302"/>
		</linearGradient>
		<path id="Pfad_142" class="st0" d="M318.6,184.2c-7.9-13.9-25.5-18.7-39.3-10.8c0,0-0.1,0-0.1,0c-25.4,14.8-49.8,31.2-73,49.2
			c-1,0.8-1.8,1.5-2.8,2.3c-1.1,0.6-2.1,1.3-3,2c-21.3,16.6-44.7,35.9-71,59.2c-12.1,10.4-13.5,28.6-3.1,40.8
			c10.4,12.1,28.6,13.5,40.8,3.1c0.2-0.1,0.3-0.3,0.5-0.4c25.4-22.6,47.7-41.2,68-57c0.9-0.7,1.7-1.4,2.5-2.3c1-0.5,2-1.2,2.8-2
			c21.1-16.4,43.4-31.5,66.5-44.9c13.8-7.3,19.1-24.4,11.8-38.2C319,184.8,318.8,184.5,318.6,184.2z"/>
		
			<linearGradient id="Pfad_143_1_" gradientUnits="userSpaceOnUse" x1="171.5023" y1="469.0989" x2="175.1948" y2="471.6183" gradientTransform="matrix(31.627 0 0 -26.776 -5390.2793 12954.7275)">
			<stop  offset="7.500000e-002" style="stop-color:#F2001A"/>
			<stop  offset="1" style="stop-color:#F2001A;stop-opacity:0.149"/>
		</linearGradient>
		<path id="Pfad_143" class="st1" d="M163.5,294.4c-10.5-11.9-28.7-13.1-40.6-2.6c-0.1,0.1-0.2,0.2-0.3,0.3
			c-3.8,3.3-76.8,71.3-90.1,82.8c-0.5,0.4-1.2,0.5-1.8,0.3c-0.5-0.5-0.3-1.8-0.3-1.8c0.3-1.3,0.5-2.3,0.8-3.5l-63,56
			c0.8,6.6,3.4,12.9,7.5,18.1c6,7.3,14.9,11.8,24.4,12.3h2.5c10.2-0.5,20.1-3.8,28.6-9.3c8.7-5.3,17-11.3,24.8-17.8
			c17.1-13.8,37.6-32.6,61.5-54.5c13.8-12.8,28.4-25.9,43.4-39.4c12-10.3,13.3-28.3,3.1-40.2C163.9,294.8,163.7,294.6,163.5,294.4z"
			/>
		
			<linearGradient id="Pfad_144_1_" gradientUnits="userSpaceOnUse" x1="186.2441" y1="471.9112" x2="188.1481" y2="475.2704" gradientTransform="matrix(18.6033 0 0 -39.4328 -3033.2368 18963.7891)">
			<stop  offset="0" style="stop-color:#BA65A5"/>
			<stop  offset="1" style="stop-color:#BA65A5;stop-opacity:0.2"/>
		</linearGradient>
		<path id="Pfad_144" class="st2" d="M394.9,364.2l-10.8,47.4c1.3,12.2,10,22.3,21.8,25.4c2.2,0.5,4.5,0.7,6.8,0.8
			c13.3,0,25-9.1,28.1-22.1l9.3-37.9l0,0c0-0.3,7.8-32.1,18.1-67c5.8-20.1,11.3-37.2,16.3-50.7c3-10,7.3-19.5,12.8-28.4
			c9.8-12.7,7.4-30.9-5.3-40.7c-12.7-9.8-30.9-7.4-40.7,5.3c-4.1,5.7-7.6,11.7-10.5,18.1C416,268.3,394.9,364.2,394.9,364.2z"/>
		<path id="Pfad_145" class="st3" d="M667,135c-4.4-8.6-12.1-15.2-21.3-18.1c-8.3-2.3-17-3.4-25.6-3.3l-15.6,59.7
			c2.8-0.6,5.7-1.1,8.5-1.3c-1.5,14.8-16.3,63-30.1,105.2c-5.1,15,2.7,31.4,17.6,36.9c3.1,1,6.3,1.6,9.5,1.8
			c12.3-0.1,23.2-7.8,27.4-19.3c8.3-23.8,19.8-58.5,27.4-88.9C668.3,193,678.1,155.1,667,135z"/>
		
			<linearGradient id="Pfad_146_1_" gradientUnits="userSpaceOnUse" x1="182.7088" y1="477.3723" x2="179.6702" y2="476.1991" gradientTransform="matrix(29.3215 0 0 -13.4602 -4936.8535 6593.1553)">
			<stop  offset="0" style="stop-color:#1E55A3"/>
			<stop  offset="1" style="stop-color:#1E55A3;stop-opacity:0.302"/>
		</linearGradient>
		<path id="Pfad_146" class="st4" d="M430.6,204.3l31.1-49c-2-1.5-4.3-2.8-6.3-4c-25.4-13.8-54.7-18.5-83.1-13.6
			c-14.3,2.3-28.3,6-41.9,11c-14.2,5.4-28,11.6-41.4,18.8c-14.1,7.6-19.4,25.1-11.8,39.2c5.1,9.4,14.9,15.3,25.6,15.3
			c4.7,0.1,9.4-1.2,13.6-3.5c20-11.5,41.8-19.6,64.5-23.8c15.6-3.1,31.8-0.8,45.9,6.5C427.9,202.4,429.2,203.4,430.6,204.3z"/>
		
			<linearGradient id="Pfad_147_1_" gradientUnits="userSpaceOnUse" x1="183.7259" y1="475.5557" x2="188.7326" y2="476.7738" gradientTransform="matrix(27.021 0 0 -19.5417 -4504.6011 9484.4912)">
			<stop  offset="0.1" style="stop-color:#1E55A3;stop-opacity:0.302"/>
			<stop  offset="1" style="stop-color:#1E55A3"/>
		</linearGradient>
		<path id="Pfad_147" class="st5" d="M622.3,113.7c-9.5,0-19.1,1-28.4,3c-35.4,8.3-69.2,22.8-99.7,42.7
			c-13.9,8.8-26.7,19.4-37.9,31.4c-10.5,12-9.5,30.2,2.3,40.9c5.3,4.8,12.2,7.4,19.3,7.3c8.2-0.1,16.1-3.7,21.6-9.8
			c30.3-27.8,67.3-47.2,107.4-56.2L622.3,113.7z"/>
		<path id="Pfad_148" class="st6" d="M327.9,192c-7.1-29.6-18.6-78.6-24.1-95.9C297,75.3,284,71,274.2,71
			c-20.1,0-28.9,17.8-31.9,24.6c-21.6,47.4-64,195.8-67.3,207.8c0,0-0.3,1.3-1.3,1.3c-1,0-1.3-1.3-1.3-1.3
			c-2.8-9.5-42.4-124-59-159.6c-15.8-34.1-33.4-31.4-42.7-29.1l0,0c-8.3,2.2-15.7,7.2-20.8,14.1C24.6,161.9,4.5,241.2-5.8,279.6
			c-4.1,15.5,5.1,31.3,20.6,35.4c15.5,4.1,31.3-5.1,35.4-20.6c8.5-31.9,17.3-61.2,25.4-84.6c0.5-1.2,1-2.5,1.3-3.8
			c0.5,1,0.8,2,1.3,3c9.5,24.9,20.1,55,30.6,84.1c9.5,27.1,18.8,52.7,26.1,71.5c4,10.5,7.3,18.6,9.8,24.1c1.5,3.3,3.1,6.5,5,9.5
			c1.4,2.4,3.2,4.6,5.3,6.5c6.5,6.5,15.7,9.7,24.8,8.5c8.4-1.1,15.9-5.7,20.8-12.6c1.3-1.8,2.4-3.7,3.3-5.8c1.5-3,2.9-6.1,4-9.3
			c2.3-6,5.3-14.3,8.8-25.6c6.8-20.6,15.3-48.7,24.4-78.3c9.3-30.1,18.8-61.2,27.6-88.9c1,3.8,1.8,7.8,2.8,11.8L327.9,192z"/>
		<path id="Pfad_149" class="st6" d="M-31.3,428.7l62-55v-0.3c4.8-23.6,12.6-53,20.3-81.6c4-15.5-5.3-31.3-20.7-35.3
			c-15.5-4-31.3,5.3-35.3,20.7c-9.3,34.6-16.8,68.3-21.8,95.1c-2.5,14.3-4.3,26.1-5,35.1c-0.4,4.8-0.5,9.5-0.3,14.3
			C-32,424.2-31.7,426.5-31.3,428.7z"/>
		<path id="Pfad_150" class="st7" d="M420.3,378.2c-12.3-3-25.2,2.4-31.6,13.3l-6.5,29.1c-0.1,0.7-0.8,1.1-1.5,1
			c-0.5-0.1-0.9-0.5-1-1c-0.2-1.4-0.6-2.7-1-4l-56.2,11.5c15.8,70.5,24.6,109.2,24.6,109.9c5.3,22.3,16.6,32.9,31.6,32.9
			c11.3,0,25.6-6.8,32.4-33.6l30.4-123.7c4-15.5-5.4-31.4-20.9-35.4C420.4,378.3,420.3,378.2,420.3,378.2z"/>
		<path id="Pfad_151" class="st3" d="M620.6,257.3c-15.1-4.8-31.3,3-36.9,17.8c0,0.3-16.6,48.7-25.4,69.8c0,0-0.5,1-1.3,1
			c-0.6,0-1.1-0.4-1.3-1c-2.3-9-4-15.6-6.5-23.6c-9.5-31.8-20.9-63-34.1-93.4c-0.3-0.5-3.8-7.8-3.8-7.8
			c-5.9-12.3-12.8-24.1-20.8-35.1c-4.7-6.6-10-12.7-15.8-18.3c-4.7-4.6-9.8-8.7-15.3-12.3l-30.8,48.4c8,5.3,20.1,18.3,34.1,49
			c12.2,28.3,22.7,57.3,31.6,86.9c7.3,22.6,13.6,41.9,20.1,57.2c4.3,9.8,13.3,39.2,44.4,39.2c28.8,0,40.2-32.1,48.2-54.2
			c4.3-12.1,20.6-57.2,31.1-86.9c5.4-14.7-2.1-31-16.8-36.4C621.1,257.4,620.8,257.3,620.6,257.3z"/>
		
			<linearGradient id="Pfad_152_1_" gradientUnits="userSpaceOnUse" x1="180.7782" y1="475.0457" x2="183.5027" y2="470.4813" gradientTransform="matrix(16.878 0 0 -37.55 -2747.2041 18068.3262)">
			<stop  offset="0" style="stop-color:#F2001A"/>
			<stop  offset="6.200000e-002" style="stop-color:#ED0826"/>
			<stop  offset="0.378" style="stop-color:#D8305C"/>
			<stop  offset="0.651" style="stop-color:#C84D84"/>
			<stop  offset="0.868" style="stop-color:#BE5F9C"/>
			<stop  offset="1" style="stop-color:#BA65A5"/>
		</linearGradient>
		<path id="Pfad_152" class="st8" d="M323.1,430.5l56.2-11.5c-7.1-31.6-14.6-66.5-22.3-101.4l0,0l-24.4-105.9
			c-1-4.5-2.8-12.3-5-21.8l-56.5,12.8c8.8,36.9,19.6,84.1,32.4,140.8C310.3,373.2,317.1,403.1,323.1,430.5z"/>
	</g>
</g>
</svg>
