<?xml version="1.0" encoding="UTF-8" standalone="no"?>
<svg
   xmlns:svg="http://www.w3.org/2000/svg"
   xmlns="http://www.w3.org/2000/svg"
   version="1.1"
   width="592.5191"
   height="118.58776"
   id="svg3393">
  <defs
     id="defs3395" />
  <g
     transform="translate(-53.74044,-473.0683)"
     id="layer1">
    <path
       d="m 594.35386,526.65153 c 2.13187,5.94172 4.26374,12.03016 6.5469,18.27447 l -27.87017,0 c 2.28775,-6.24431 4.57091,-12.33275 6.85407,-18.27447 2.28775,-5.94173 4.8735,-11.87886 7.46384,-17.97189 2.43445,6.09303 4.7222,12.03016 7.00536,17.97189 m 37.1587,36.39765 c -3.50268,-8.52748 -7.15666,-17.51343 -10.96193,-27.10913 -3.80985,-9.43982 -7.46383,-19.03552 -11.1178,-28.93381 -3.80987,-9.89829 -7.31254,-19.03552 -10.50805,-27.71887 -1.06823,0.1513 -1.98058,0.30258 -2.89751,0.45846 -0.91235,0.1513 -1.8247,0.30259 -2.89293,0.30259 -1.06364,0 -1.98058,-0.15129 -2.89291,-0.30259 -0.91235,-0.15588 -1.8247,-0.30716 -2.89293,-0.45846 -2.28316,5.78585 -4.72221,12.03016 -7.31254,18.73293 -2.73705,6.70278 -5.48326,13.55227 -8.22031,20.40634 -2.89291,6.85408 -5.63455,13.70815 -8.37617,20.40634 -2.89293,6.85407 -5.48326,13.09839 -7.9223,19.04011 -2.43445,5.93714 -4.71761,11.11781 -6.69819,15.84001 -1.98057,4.71761 -3.65856,8.37618 -4.8735,10.96193 1.37081,-0.15129 2.74163,-0.30259 3.95656,-0.30259 l 3.65856,0 3.65398,0 c 1.06364,0 2.28316,0.1513 3.50269,0.30259 1.37081,-5.02479 3.04421,-10.04958 4.7222,-15.23025 1.6734,-5.17609 3.65397,-10.35218 5.63455,-15.53284 2.58575,-0.1513 5.32737,-0.1513 7.91771,-0.30259 l 7.91771,0 9.747,0 c 3.2001,0.15129 6.55149,0.15129 9.747,0.30259 1.98058,5.18066 3.80985,10.35675 5.48325,15.53284 1.67799,5.18067 3.35139,10.20546 5.0248,15.23025 2.13645,-0.15129 4.26831,-0.30259 6.55148,-0.30259 l 6.39561,0 6.5469,0 c 2.13645,0 4.41961,0.1513 6.85407,0.30259 -2.89292,-5.93714 -6.24431,-13.09838 -9.747,-21.62585 M 428.50594,550.56192 c -0.76105,11.42498 -1.6734,22.69408 -2.43446,34.11448 -1.21952,-0.1513 -2.43904,-0.30259 -3.65855,-0.30259 l -3.50269,0 -3.50269,0 c -1.21494,0 -2.43445,0.15129 -3.65397,0.30259 3.2001,-17.51342 6.09302,-34.87553 8.67877,-52.08637 2.59033,-17.20624 4.87349,-34.71965 7.00536,-52.54024 1.06823,0.15129 2.13645,0.30259 3.20009,0.45846 0.91235,0.1513 1.98058,0.30259 3.04423,0.30259 0.91692,0 1.82927,-0.15129 2.8975,-0.30259 1.06365,-0.15587 2.13187,-0.30717 3.19551,-0.45846 2.74164,6.09301 5.63455,12.33733 8.68336,18.58164 2.89291,6.24431 5.93714,12.48404 8.98594,18.72835 2.89292,6.24431 5.93714,12.48862 8.98135,18.43035 2.89751,5.93714 5.79044,11.72757 8.53206,17.05495 6.08844,-11.4204 12.18145,-23.29926 18.27448,-35.78789 5.94172,-12.33732 11.72756,-24.67007 17.21082,-37.0074 2.58575,0.45388 4.71761,0.76105 6.5469,0.76105 1.6734,0 3.80528,-0.30259 6.3956,-0.76105 1.06823,8.67876 2.13188,18.12318 3.35139,28.17275 1.06824,10.05418 2.28316,19.80116 3.3514,29.39229 1.06364,9.5957 2.28316,18.58164 3.35139,26.95782 1.06363,8.37618 2.13186,15.07895 3.04421,20.10375 -1.98058,-0.1513 -4.11244,-0.30259 -6.09301,-0.30259 l -6.24432,0 -6.24431,0 c -2.13187,0 -4.26374,0.15129 -6.39561,0.30259 -0.45846,-10.50805 -1.37081,-21.77716 -2.43445,-33.96318 -1.21953,-12.18147 -2.43905,-24.21162 -3.65856,-36.24637 l -0.30259,0 c -5.78585,12.03475 -11.42499,23.75774 -17.05954,35.33402 -5.63455,11.57627 -11.11322,23.14796 -16.59648,34.87553 -0.45847,-0.1513 -0.91693,-0.1513 -1.37082,-0.30259 l -1.52668,0 -1.36624,0 c -0.45846,0.15129 -1.06823,0.15129 -1.52669,0.30259 -5.48326,-11.4204 -10.96194,-22.6895 -16.2939,-34.11448 -5.48325,-11.4204 -11.1178,-22.84538 -16.90365,-34.57295 l -0.30717,0 c -1.6734,11.72757 -2.89293,23.15255 -3.65398,34.57295 m -63.50446,-50.86684 c -0.1513,-6.5469 -0.45846,-13.09839 -0.91235,-19.64529 1.6734,0.1513 3.65397,0.30259 5.63455,0.45848 1.98057,0.15128 4.26374,0.30258 6.85407,0.30258 2.58575,0 4.8735,-0.1513 6.84949,-0.30258 1.98058,-0.15589 3.96115,-0.30718 5.63914,-0.45848 -0.45846,6.5469 -0.76105,13.09839 -0.91694,19.64529 -0.15129,6.5469 -0.30259,14.16202 -0.30259,22.53821 l 0,20.7135 c 0,8.37619 0.1513,15.84001 0.30259,22.38691 0.15589,6.55149 0.45848,13.09839 0.91694,19.3427 -1.67799,-0.15129 -3.65856,-0.30259 -5.63914,-0.30259 l -6.84949,0 -6.85407,0 c -1.98058,0 -3.96115,0.1513 -5.63455,0.30259 0.45389,-6.24431 0.76105,-12.79121 0.91235,-19.3427 0.1513,-6.5469 0.30259,-14.01072 0.30259,-22.38691 l 0,-20.7135 c 0,-8.37619 -0.15129,-15.99131 -0.30259,-22.53821 z m -71.57853,-2.89339 c -0.1513,-2.43446 -0.30717,-4.26374 -0.45846,-5.33196 -1.52211,0 -3.35139,0 -5.63455,0.15587 -2.28316,0.1513 -4.56632,0.1513 -7.15666,0.30259 -2.59034,0.1513 -5.17609,0.45848 -7.76643,0.60976 -2.59033,0.30259 -5.02478,0.60977 -7.31253,0.91235 0.15587,-1.06363 0.45846,-2.28316 0.60976,-3.35138 0.15129,-1.06365 0.15129,-2.28317 0.15129,-3.34682 0,-1.06822 0,-2.28773 -0.15129,-3.35138 -0.1513,-1.06823 -0.45389,-2.28775 -0.60976,-3.35139 3.50268,0.1513 6.55148,0.1513 9.44441,0.30259 2.74162,0.1513 5.63455,0.15587 8.52747,0.15587 2.89292,0.1513 5.94173,0.1513 9.4444,0.1513 3.34682,0.15129 7.45925,0.15129 12.18145,0.15129 4.72222,0 8.83465,0 12.33734,-0.15129 3.35139,0 6.3956,0 9.28853,-0.1513 2.89292,-0.005 5.63455,0 8.37617,-0.15587 2.59034,-0.15129 5.48326,-0.15129 8.68336,-0.30259 -0.15588,1.06364 -0.30717,2.28316 -0.45847,3.35139 -0.15129,1.06365 -0.30716,2.28316 -0.30716,3.35138 0,1.06365 0.15587,2.28317 0.30716,3.34682 0.1513,1.06822 0.30259,2.28775 0.45847,3.35138 -1.98057,-0.30258 -4.26832,-0.60976 -6.85407,-0.91235 -2.59034,-0.15128 -5.02479,-0.45846 -7.46384,-0.60976 -2.59032,-0.15129 -4.87349,-0.15129 -7.15666,-0.30259 -2.28316,-0.15587 -4.11244,-0.15587 -5.63455,-0.15587 -0.15129,0.45846 -0.15129,1.21952 -0.15129,2.13186 -0.15587,0.91694 -0.15587,1.98058 -0.15587,3.2001 l 0,8.07359 0,38.07105 c 0,8.37619 0.15587,15.84001 0.30716,22.38691 0.1513,6.55149 0.45389,13.09839 0.91235,19.3427 -1.6734,-0.1513 -3.65398,-0.30259 -5.63455,-0.30259 l -6.85408,0 -6.85407,0 c -1.98056,0 -3.95656,0.15129 -5.63455,0.30259 0.45847,-6.24431 0.76106,-12.79121 0.91235,-19.3427 0.15587,-6.5469 0.30717,-14.01072 0.30717,-22.38691 l 0,-38.07105 0,-8.07359 z m -58.32838,2.74164 c -0.91235,-2.59034 -2.13187,-4.7222 -3.50269,-6.3956 -1.5221,-1.52211 -3.20009,-2.59034 -5.17608,-3.3514 -1.98057,-0.76105 -4.11245,-1.06364 -6.24431,-1.06364 l -3.50269,-0.005 c -0.45846,0 -1.06822,0.005 -1.5267,0.005 -0.45387,-0.005 -0.91233,0 -1.37081,0.1513 -0.15129,7.30795 -0.15129,14.46461 -0.15129,21.47456 -0.1513,7.15667 -0.1513,14.16203 -0.1513,21.31869 2.59034,0 5.17609,-0.30259 7.91772,-0.76106 2.59033,-0.45846 5.02938,-1.5221 7.31255,-3.20009 2.28316,-1.52211 4.11243,-3.80527 5.48325,-6.6982 1.37081,-2.89292 2.13187,-6.85407 2.13187,-11.72756 0,-3.80986 -0.45847,-7.15666 -1.21952,-9.747 m -44.47124,0.1513 c -0.1513,-6.5469 -0.45389,-13.09839 -0.91235,-19.64529 1.6734,0.15129 3.65397,0.30259 5.63455,0.45846 1.98057,0.1513 4.26374,0.30259 6.85407,0.30259 3.50269,0 7.30795,-0.15129 11.11782,-0.45846 3.80526,-0.1513 7.45925,-0.30259 11.11781,-0.30259 7.15665,0 12.7912,0.45846 16.90365,1.5221 4.11244,1.06824 7.31254,2.74164 9.5957,4.72221 3.19551,2.59034 5.63455,5.63455 7.15666,8.83465 1.52211,3.1955 2.28316,7.15665 2.28316,11.72298 0,5.79044 -0.91235,10.81522 -2.89292,14.92767 -1.98058,4.11244 -4.56633,7.46383 -8.06901,10.04958 -3.50268,2.59034 -7.771,4.57091 -12.48863,5.79044 -4.7222,1.21492 -10.05416,1.82468 -15.68871,1.82468 l -7.76643,0 c 0,7.61513 0.1513,15.23027 0.30259,22.69409 0.15589,7.61513 0.45847,15.07438 0.91694,22.53821 -1.67799,-0.1513 -3.65398,-0.30259 -5.63455,-0.30259 l -6.85408,0 -6.85407,0 c -1.98058,0 -3.96115,0.15129 -5.63455,0.30259 0.45846,-6.24431 0.76105,-12.79121 0.91235,-19.3427 0.15129,-6.5469 0.30717,-14.01073 0.30717,-22.38691 l 0,-20.71351 c 0,-8.3716 -0.15588,-15.98673 -0.30717,-22.5382 z m -43.09629,11.7271 c -1.67799,-5.17609 -3.80985,-9.5957 -6.70277,-13.24968 -2.89293,-3.65397 -6.39562,-6.5469 -10.50805,-8.52747 -4.11245,-1.98058 -8.67878,-2.89293 -13.55228,-2.89293 -5.18066,0 -9.74699,1.21494 -13.85944,3.65398 -4.112435,2.59034 -7.615122,5.93714 -10.508047,10.20546 -2.892913,4.26374 -5.024788,9.28853 -6.3956,14.92308 -1.522113,5.78585 -2.28775,11.87887 -2.28775,18.42577 0,8.07359 0.916937,14.92766 2.590337,20.56221 1.677988,5.63455 4.112438,10.04959 7.005363,13.40098 2.892925,3.50267 6.395612,5.94172 10.205467,7.46382 3.80527,1.52211 7.91771,2.28317 12.18145,2.28317 4.57091,0 8.98595,-0.91235 13.09838,-2.89293 4.11245,-1.98058 7.76643,-4.87349 10.96652,-8.83464 3.04422,-3.95656 5.48326,-8.98595 7.46383,-15.07437 1.8247,-6.09303 2.73705,-13.24969 2.73705,-21.62586 0,-6.55149 -0.76106,-12.48863 -2.43446,-17.82059 m -84.522862,0 c 2.741625,-6.5469 6.6982,-12.33733 11.727575,-17.36213 5.024787,-5.02478 11.2691,-8.83006 18.425762,-11.72756 7.156665,-2.89292 15.230255,-4.26374 24.060315,-4.26374 8.07359,0 15.68872,1.06823 22.69409,3.35139 7.00536,2.28316 13.09838,5.63455 18.27446,10.04958 5.18067,4.41962 9.28854,10.05417 12.33734,16.90825 2.89292,6.85406 4.41502,14.92307 4.41502,24.06031 0,7.61512 -1.37081,14.77178 -4.26374,21.32327 -2.89291,6.5469 -7.00536,12.33274 -12.03015,17.21083 -5.17608,5.02478 -11.26911,8.83006 -18.43035,11.57168 -7.15666,2.74163 -14.92308,4.11245 -23.45056,4.11245 -8.07359,0 -15.53742,-1.06824 -22.542787,-3.04422 -7.156663,-1.98058 -13.249675,-5.18067 -18.425763,-9.5957 -5.331962,-4.41503 -9.444412,-10.04959 -12.488625,-16.90365 -3.044212,-6.85408 -4.566325,-14.92766 -4.566325,-24.52338 0,-7.45923 1.366238,-14.62048 4.263738,-21.16738"
       id="path174"
       style="fill:#008fc5;fill-opacity:1;fill-rule:evenodd;stroke:none" />
  </g>
</svg>
