<?xml version="1.0" standalone="no"?>
<!DOCTYPE svg PUBLIC "-//W3C//DTD SVG 20010904//EN"
 "http://www.w3.org/TR/2001/REC-SVG-20010904/DTD/svg10.dtd">
<svg version="1.0" xmlns="http://www.w3.org/2000/svg"
 width="1200.000000pt" height="322.000000pt" viewBox="0 0 1200.000000 322.000000"
 preserveAspectRatio="xMidYMid meet">

<g transform="translate(0.000000,322.000000) scale(0.100000,-0.100000)"
fill="#000000" stroke="none">
<path d="M8871 2169 c-347 -578 -631 -1053 -631 -1055 0 -2 208 -3 462 -2
l462 3 628 1045 c345 575 627 1048 628 1053 0 4 -207 7 -459 7 l-460 0 -630
-1051z"/>
<path d="M9985 2203 c-336 -559 -620 -1033 -633 -1055 l-23 -38 465 0 465 0
630 1051 c347 578 631 1052 631 1055 0 2 -208 4 -463 4 l-462 0 -610 -1017z"/>
<path d="M856 2890 l-208 -5 -299 -820 c-164 -451 -310 -850 -324 -888 l-25
-67 646 2 646 3 52 145 c29 80 56 155 60 168 l7 22 -431 0 c-342 0 -431 3
-428 13 3 6 35 96 73 199 l68 188 405 2 405 3 59 159 c32 88 58 164 58 169 0
6 -150 7 -400 2 -272 -5 -400 -4 -400 3 0 6 29 90 65 188 36 98 65 179 65 181
0 1 196 4 436 5 l437 3 52 145 c29 80 55 155 59 168 l7 22 -438 -2 c-241 -1
-532 -5 -647 -8z"/>
<path d="M3525 2892 l-120 -4 -390 -404 c-214 -223 -403 -420 -419 -439 l-28
-34 150 -433 c83 -238 154 -441 157 -450 7 -17 28 -18 256 -18 188 0 249 3
249 12 0 7 -65 199 -144 428 -80 228 -146 420 -148 427 -2 6 191 212 427 458
237 246 432 451 433 456 4 9 -169 9 -423 1z"/>
<path d="M2315 2878 c-3 -7 -146 -402 -320 -878 -173 -476 -315 -871 -315
-878 0 -10 47 -12 218 -10 l217 3 317 870 c175 479 320 878 323 888 6 16 -9
17 -215 17 -167 0 -222 -3 -225 -12z"/>
<path d="M3982 2008 c-177 -486 -322 -886 -322 -890 0 -5 98 -8 218 -8 l219 0
243 668 c133 367 251 691 262 720 l19 52 264 0 264 0 35 -35 c111 -111 44
-332 -131 -427 -88 -48 -280 -88 -426 -88 -48 0 -48 0 -42 -27 3 -16 64 -215
134 -443 l128 -415 257 -3 c205 -2 257 0 253 10 -6 18 -218 691 -220 701 -1 5
48 25 108 45 147 49 235 100 321 186 120 121 181 279 172 450 -8 153 -87 258
-255 339 l-88 42 -546 3 -545 3 -322 -883z"/>
<path d="M6239 2009 c-365 -484 -665 -885 -667 -890 -2 -5 94 -9 241 -9 l246
0 556 738 c306 405 560 739 566 740 6 3 8 -147 7 -410 l-3 -413 -242 -5 -243
-5 -120 -165 -120 -165 362 -5 363 -5 3 -152 3 -153 214 0 215 0 0 890 0 890
-358 0 -359 0 -664 -881z"/>
<path d="M3293 620 c-57 -25 -85 -71 -80 -128 3 -24 13 -52 23 -63 20 -23 105
-69 126 -69 7 0 36 -11 64 -24 83 -39 93 -112 22 -157 -50 -31 -142 -23 -175
15 -12 15 -23 36 -23 47 0 14 -7 19 -25 19 -30 0 -32 -17 -9 -66 25 -52 75
-78 150 -76 115 1 174 48 174 136 0 81 -32 111 -163 151 -139 43 -159 150 -36
186 55 17 118 -3 137 -43 9 -19 21 -28 37 -28 23 0 24 2 14 27 -32 85 -138
118 -236 73z"/>
<path d="M5600 375 c0 -248 1 -255 20 -255 19 0 20 7 20 109 l0 108 90 6 c151
11 207 57 197 161 -8 91 -73 126 -234 126 l-93 0 0 -255z m199 209 c80 -16
109 -108 52 -165 -28 -28 -33 -29 -120 -29 l-91 0 0 93 c0 52 3 97 7 100 8 9
110 9 152 1z"/>
<path d="M6230 605 c0 -20 5 -25 25 -25 20 0 25 5 25 25 0 20 -5 25 -25 25
-20 0 -25 -5 -25 -25z"/>
<path d="M7007 623 c-4 -3 -7 -15 -7 -25 0 -13 7 -18 25 -18 20 0 25 5 25 25
0 18 -5 25 -18 25 -10 0 -22 -3 -25 -7z"/>
<path d="M8020 610 c0 -18 7 -20 80 -20 l80 0 2 -232 c3 -225 4 -233 23 -233
19 0 20 8 23 233 l2 232 80 0 c73 0 80 2 80 20 0 19 -7 20 -185 20 -178 0
-185 -1 -185 -20z"/>
<path d="M9100 374 c0 -238 1 -255 18 -252 15 3 18 20 22 135 5 128 6 134 33
160 35 36 96 38 129 5 21 -21 23 -34 28 -160 4 -120 7 -137 23 -140 15 -3 17
9 17 138 0 162 -9 192 -67 216 -45 19 -103 10 -137 -21 l-26 -24 0 99 c0 93
-1 100 -20 100 -19 0 -20 -7 -20 -256z"/>
<path d="M10262 378 c3 -245 4 -253 23 -253 19 0 20 8 23 253 l2 252 -25 0
-25 0 2 -252z"/>
<path d="M11190 605 c0 -20 5 -25 25 -25 20 0 25 5 25 25 0 20 -5 25 -25 25
-20 0 -25 -5 -25 -25z"/>
<path d="M6828 562 c-14 -3 -18 -13 -18 -43 0 -38 -1 -39 -35 -39 -28 0 -35
-4 -35 -19 0 -15 8 -21 33 -23 l32 -3 2 -130 c2 -72 5 -140 8 -152 10 -41 115
-53 115 -13 0 13 -6 17 -19 13 -10 -3 -28 0 -40 6 -20 11 -21 20 -21 146 l0
135 41 0 c33 0 40 3 37 18 -2 12 -14 18 -40 20 -36 3 -37 5 -40 45 -2 34 -6
42 -20 39z"/>
<path d="M3726 480 c-93 -29 -137 -175 -83 -280 29 -58 63 -82 120 -82 68 -1
106 18 128 66 29 66 -2 80 -42 19 -30 -46 -75 -61 -119 -38 -100 52 -82 261
24 281 43 8 94 -18 102 -51 4 -18 13 -25 30 -25 28 0 28 1 10 43 -23 57 -102
88 -170 67z"/>
<path d="M4090 483 c-8 -3 -25 -15 -37 -26 l-23 -20 0 21 c0 15 -6 22 -20 22
-20 0 -20 -5 -18 -177 3 -160 5 -178 21 -181 15 -3 17 7 17 113 0 126 12 171
51 199 13 9 36 16 52 16 22 0 28 4 25 18 -3 17 -40 26 -68 15z"/>
<path d="M4291 468 c-60 -31 -86 -81 -86 -168 0 -117 58 -185 155 -183 26 0
60 7 76 14 29 15 74 72 74 95 0 25 -35 14 -52 -16 -21 -37 -75 -62 -117 -54
-40 8 -80 53 -88 97 l-6 37 138 0 138 0 -7 47 c-17 124 -122 185 -225 131z
m119 -33 c30 -15 60 -61 60 -90 0 -13 -17 -15 -110 -15 -73 0 -110 4 -110 11
0 29 36 83 64 95 41 17 61 17 96 -1z"/>
<path d="M4680 468 c-61 -32 -85 -81 -85 -173 0 -81 26 -134 78 -162 40 -21
114 -20 156 1 31 17 71 69 71 94 0 23 -40 13 -50 -12 -20 -53 -99 -76 -154
-47 -27 15 -56 66 -56 100 0 20 5 21 136 21 l137 0 -7 43 c-11 70 -36 110 -86
135 -24 12 -56 22 -70 22 -14 0 -46 -10 -70 -22z m116 -33 c32 -13 64 -61 64
-95 0 -6 -41 -10 -110 -10 -60 0 -110 4 -110 9 0 29 27 76 54 92 37 23 56 24
102 4z"/>
<path d="M5110 479 c-14 -6 -35 -20 -47 -31 l-23 -21 0 26 c0 20 -5 27 -20 27
-20 0 -20 -5 -18 -177 3 -156 5 -178 19 -181 15 -3 17 13 20 127 4 112 7 133
25 157 34 47 91 55 139 20 18 -13 21 -29 25 -158 5 -135 6 -143 25 -143 19 0
20 8 23 121 3 135 -8 186 -48 216 -32 23 -87 31 -120 17z"/>
<path d="M6100 483 c-8 -3 -25 -15 -37 -26 l-23 -20 0 21 c0 15 -6 22 -20 22
-19 0 -20 -7 -20 -180 0 -171 1 -180 19 -180 18 0 20 10 23 136 l3 136 33 29
c18 16 43 29 57 29 18 0 25 5 25 20 0 20 -25 26 -60 13z"/>
<path d="M6503 483 c-12 -2 -33 -15 -47 -28 l-25 -23 -3 22 c-4 26 -43 30 -42
4 0 -10 1 -90 2 -179 2 -147 3 -160 20 -157 15 3 18 20 22 135 5 128 6 134 33
160 35 36 96 38 129 5 21 -21 23 -34 28 -160 4 -120 7 -137 23 -140 15 -3 17
9 17 138 0 161 -10 192 -65 216 -34 14 -50 15 -92 7z"/>
<path d="M7270 479 c-14 -6 -35 -20 -47 -31 l-23 -21 0 26 c0 20 -5 27 -20 27
-20 0 -20 -5 -18 -177 3 -156 5 -178 19 -181 15 -3 17 12 21 120 4 138 17 177
67 198 37 15 83 6 107 -22 16 -17 19 -41 22 -160 3 -124 5 -139 20 -136 15 3
17 21 20 130 3 140 -8 184 -51 213 -32 21 -85 27 -117 14z"/>
<path d="M7612 470 c-54 -25 -81 -79 -82 -164 0 -114 52 -176 148 -176 40 0
57 6 81 26 l31 26 0 -47 c0 -35 -6 -51 -24 -70 -45 -45 -129 -45 -165 0 -21
28 -61 34 -61 9 0 -8 13 -29 29 -45 28 -27 34 -29 109 -29 143 0 162 37 162
316 0 165 0 165 -22 162 -14 -2 -24 -12 -28 -27 -5 -22 -6 -23 -20 -6 -17 21
-71 45 -97 45 -10 0 -37 -9 -61 -20z m143 -60 c28 -28 30 -35 30 -105 0 -68
-2 -76 -29 -104 -39 -41 -104 -44 -141 -7 -67 67 -46 218 35 249 28 11 75 -4
105 -33z"/>
<path d="M8474 480 c-42 -13 -91 -70 -100 -115 -11 -60 0 -152 22 -182 38 -50
68 -66 128 -65 67 0 106 22 135 72 26 47 26 50 -2 50 -15 0 -26 -9 -35 -29 -7
-17 -28 -37 -50 -47 -32 -15 -41 -15 -76 -3 -44 16 -71 48 -81 97 l-7 32 137
0 138 0 -5 51 c-10 104 -105 169 -204 139z m123 -62 c13 -13 27 -38 32 -56
l10 -32 -114 0 -114 0 9 31 c11 36 36 67 65 80 31 14 87 2 112 -23z"/>
<path d="M8844 470 c-112 -56 -122 -266 -16 -332 40 -24 114 -28 151 -9 26 14
61 68 61 94 0 30 -35 19 -53 -17 -20 -44 -73 -64 -113 -44 -96 47 -99 239 -5
278 50 20 104 -1 122 -47 11 -29 49 -32 49 -4 0 30 -48 79 -88 91 -51 14 -61
13 -108 -10z"/>
<path d="M9593 479 c-18 -5 -39 -19 -47 -30 l-14 -21 -4 23 c-2 16 -10 24 -23
24 -19 0 -20 -6 -17 -175 2 -159 4 -175 20 -175 15 0 18 15 22 133 l5 134 34
30 c28 25 39 29 69 24 68 -11 76 -29 82 -184 4 -120 7 -137 23 -140 15 -3 17
8 17 133 0 180 -16 216 -101 229 -19 3 -48 1 -66 -5z"/>
<path d="M9957 476 c-49 -18 -62 -30 -86 -80 -24 -49 -28 -131 -7 -179 17 -43
80 -97 114 -99 113 -6 171 35 192 138 21 101 -28 200 -111 224 -43 13 -56 12
-102 -4z m114 -49 c84 -56 73 -225 -16 -263 -96 -40 -180 59 -153 178 21 93
99 132 169 85z"/>
<path d="M10504 480 c-60 -18 -114 -104 -114 -180 0 -117 99 -204 204 -180
106 24 157 166 102 282 -31 65 -119 100 -192 78z m118 -57 c33 -30 48 -69 48
-126 0 -67 -29 -115 -82 -135 -100 -38 -183 95 -134 213 29 69 118 94 168 48z"/>
<path d="M10883 479 c-117 -34 -139 -263 -30 -329 46 -29 115 -26 161 5 l36
24 0 -39 c0 -30 -7 -48 -29 -72 -27 -30 -35 -33 -86 -33 -50 0 -60 3 -79 28
-23 29 -56 37 -56 13 0 -51 44 -76 135 -76 140 0 155 28 155 289 0 184 -1 191
-20 191 -15 0 -20 -7 -20 -27 l0 -26 -22 21 c-42 39 -85 48 -145 31z m108 -52
c67 -45 77 -170 19 -229 -33 -33 -91 -38 -129 -12 -70 50 -66 209 8 249 37 20
63 18 102 -8z"/>
<path d="M11420 468 c-65 -33 -93 -90 -87 -180 3 -41 12 -79 23 -99 55 -94
209 -97 264 -6 25 41 25 57 0 57 -12 0 -26 -12 -35 -31 -50 -95 -205 -54 -205
56 l0 25 136 0 136 0 -7 43 c-15 92 -59 140 -140 152 -31 5 -51 1 -85 -17z
m116 -33 c32 -13 64 -61 64 -95 0 -6 -41 -10 -110 -10 -121 0 -125 2 -95 60
16 31 57 59 88 60 10 0 33 -7 53 -15z"/>
<path d="M11806 480 c-47 -14 -76 -49 -76 -90 0 -49 30 -75 110 -96 36 -9 73
-20 82 -25 23 -12 33 -52 19 -78 -26 -49 -150 -46 -173 5 -13 29 -48 33 -48 5
0 -34 38 -69 85 -79 121 -26 226 59 181 146 -16 31 -36 41 -128 67 -55 15 -88
36 -88 55 0 4 9 18 19 31 15 19 29 24 66 24 39 0 51 -5 69 -27 26 -33 56 -37
56 -8 0 28 -43 66 -81 74 -39 7 -56 7 -93 -4z"/>
<path d="M6234 467 c-2 -7 -3 -87 -2 -177 3 -148 5 -165 21 -168 16 -3 17 11
17 177 0 156 -2 181 -15 181 -9 0 -18 -6 -21 -13z"/>
<path d="M7010 300 c0 -173 1 -180 20 -180 19 0 20 7 20 180 0 173 -1 180 -20
180 -19 0 -20 -7 -20 -180z"/>
<path d="M11200 300 c0 -167 1 -181 18 -178 15 3 17 20 17 178 0 158 -2 175
-17 178 -17 3 -18 -11 -18 -178z"/>
</g>
</svg>
