<?xml version="1.0" encoding="UTF-8" standalone="no"?>
<svg
   xmlns:svg="http://www.w3.org/2000/svg"
   xmlns="http://www.w3.org/2000/svg"
   version="1.1"
   id="svg4736"
   viewBox="0 0 548.61719 219.58988"
   height="219.58987"
   width="548.61719">
  <defs
     id="defs4738" />
  <g
     transform="translate(82.880024,-268.28155)"
     id="layer1">
    <path
       id="path38"
       d="m 119.23522,273.28155 -11.49805,4.87109 0,8.57031 -12.759774,0 0,8.57032 12.759774,0 0,27.84961 c 0,11.58862 5.74844,15 16.07031,15 2.92228,0 6.13691,-0.19483 10.125,-0.67969 l 0,-8.66797 c -3.79589,0.58096 -6.52135,0.7793 -8.27734,0.7793 -5.15875,0 -6.41992,-2.53354 -6.41992,-7.11133 l 0,-27.16992 14.41015,0 0,-8.57032 -14.41015,0 0,-13.4414 z m -196.955084,0.0996 0,151.53906 151.53906,0 0,-151.53906 -151.53906,0 z m 10.24805,10.24414 131.04296,0 0,131.04687 -131.04296,0 0,-131.04687 z m 231.750004,1.20508 c -18.25003,0 -29.31446,9.80037 -29.31446,28.14648 0,16.01353 10.48317,26.20508 29.02149,26.20508 11.25663,0 24.84601,-3.78637 27.07812,-18.44141 l -12.0332,0 c -2.13601,7.27729 -9.02954,9.90235 -15.5293,9.90235 -9.70596,0 -15.72589,-6.21172 -16.98828,-15.14453 l 45.52148,0 0,-3.88282 c 0,-17.07935 -9.80288,-26.78515 -27.75585,-26.78515 z m 59.69726,0.002 c -11.06882,0 -23.97309,3.39565 -25.33594,16.5 l 12.03516,0 c 0.58095,-5.7266 5.82214,-7.95898 11.9375,-7.95898 8.73625,0 14.26562,2.62007 14.26562,11.25586 -4.17155,0.38876 -8.92717,0.38983 -15.61914,0.58203 -18.05781,0.48922 -26.01367,6.30588 -26.01367,17.08203 0,9.6055 8.73197,16.88867 21.74024,16.88867 9.89314,0 15.52311,-1.63405 20.49218,-7.10938 0.022,1.28842 0.0915,2.10076 0.47071,5.26563 l 10.86914,0 c -0.38876,-3.69106 -0.48633,-6.59995 -0.48633,-10.29102 l 0,-23.97265 c 0,-12.71124 -10.28576,-18.24219 -24.35547,-18.24219 z m 62.7168,0.0371 c -7.66988,0 -14.50534,2.68509 -19.80469,8.96484 -0.0591,-2.09589 -0.22171,-4.47322 -0.45508,-7.11328 l -10.80664,0 c 0.18783,4.87045 0.38477,8.37442 0.38477,12.07422 l 0,38.76367 11.49218,0 0,-24.64062 c 0,-13.63291 8.56931,-19.47852 16.5586,-19.47852 8.27759,0 12.26953,5.74472 12.26953,18.11524 l 0,26.0039 11.48828,0 0,-23.27929 c 0,-15.28843 7.98969,-20.83985 15.97461,-20.83985 9.84137,0 12.85937,7.50132 12.85938,18.70117 l 0,25.41797 11.49414,0 0,-29.02344 c 0,-16.55518 -8.96373,-23.66601 -23.47461,-23.66601 -8.66635,0 -15.96957,4.87107 -20.0625,11.00391 -3.21057,-7.3996 -10.02915,-11.00391 -17.91797,-11.00391 z m -274.669924,5.65625 0,68.06055 22.20312,0 0,-68.06055 -22.20312,0 z m 152.058594,2.84766 c 7.56996,0 15.23654,3.68777 15.91797,13.58593 l -33,0 c 1.65115,-9.41766 8.05749,-13.58593 17.08203,-13.58593 z m -225.486334,18.6582 0,22.20312 68.0605504,0 0,-22.20312 -68.0605504,0 z m 298.283204,1.53125 0,1.25781 c 0,11.06445 -6.30664,15.82031 -17.37109,15.82031 -8.44357,0 -12.22656,-4.17008 -12.22656,-8.63867 0,-6.59586 6.21101,-7.76358 15.42773,-8.15234 6.60024,-0.28829 10.96809,-0.28711 14.16992,-0.28711 z m -275.158204,26.1582 0,68.0586 22.20313,0 0,-68.0586 -22.20313,0 z m 294.291024,12.47656 0,72.26172 11.49414,0 0,-24.05468 c 0,-14.70747 9.7399,-20.0586 18.40625,-20.0586 8.57025,0 14.70703,5.64486 14.70703,15.875 l 0,28.23828 11.49414,0 0,-28.72851 c 0,-15.97422 -10.32342,-23.95899 -24.64648,-23.95899 -8.18865,0 -15.40875,2.71891 -19.96094,8.4961 l 0,-28.07032 -11.49414,0 z m 127.52929,0.002 0,11.68554 11.48829,0 0,-11.68554 -11.48829,0 z m 19.44532,0 0,72.26172 11.49804,0 0,-25.90821 28.82422,25.71094 17.42969,0.29297 -33.11133,-28.83008 28.44141,-22.10351 -16.75196,0.0977 -24.83203,18.99219 0,-40.51367 -11.49804,0 z m -283.75,7.98633 -11.49805,4.86523 0,8.57031 -12.759774,0 0,8.57032 12.759774,0 0,27.85156 c 0,11.58862 5.74844,15 16.07031,15 2.92228,0 6.13691,-0.19241 10.125,-0.68164 l 0,-8.66602 c -3.79589,0.58533 -6.52135,0.77734 -8.27734,0.77734 -5.15875,0 -6.41992,-2.52917 -6.41992,-7.11132 l 0,-27.16992 14.41015,0 0,-8.57032 -14.41015,0 0,-13.43554 z m -129.787114,3.96484 0,22.20312 68.06054,0 0,-22.20312 -68.06054,0 z m 174.830084,7.2832 c -18.25003,0 -29.31446,9.80233 -29.31446,28.14844 0,16.01353 10.48317,26.20313 29.02149,26.20312 11.25663,0 24.84601,-3.7859 27.07812,-18.44531 l -12.0332,0 c -2.13601,7.28166 -9.02954,9.90235 -15.5293,9.90235 -9.70596,0 -15.72589,-6.21219 -16.98828,-15.14063 l 45.52148,0 0,-3.88281 c 0,-17.07935 -9.80288,-26.78516 -27.75585,-26.78516 z m 61.01953,0.33789 c -18.21507,0 -29.70703,10.3252 -29.70703,27.36524 0,16.36298 9.93163,27.17383 28.82812,27.17383 12.95147,0 26.09973,-5.64624 27.16992,-19.57618 l -12.07812,0 c -0.58097,7.2074 -6.22788,11.00196 -14.60157,11.00196 -11.49688,0 -17.24218,-8.7626 -17.24218,-18.59961 0,-12.37052 7.89002,-18.79102 17.72265,-18.79102 7.40833,0 12.8603,3.30658 13.73828,10.80664 l 12.06836,0 c -1.84333,-14.4148 -13.63275,-19.38086 -25.89843,-19.38086 z m 125.59375,0 c -8.39257,0 -15.27437,2.68411 -20.58008,8.96094 -0.0592,-2.09502 -0.22185,-4.47084 -0.45508,-7.10937 l -10.81641,0 c 0.19657,4.87045 0.39844,8.37442 0.39844,12.07421 l 0,38.76172 11.48828,0 0,-24.05468 c 0,-14.70747 9.7399,-20.0586 18.40625,-20.0586 8.57027,0 14.70313,5.64486 14.70313,15.875 l 0,28.23828 11.49609,0 0,-28.72851 c 0,-15.97422 -10.32629,-23.95899 -24.64062,-23.95899 z m 32.64843,1.84961 0,50.83594 11.48829,0 0,-50.83594 -11.48829,0 z m -219.45898,6.35547 c 7.56996,0 15.23654,3.68341 15.91797,13.58594 l -33,0 c 1.65115,-9.41767 8.05749,-13.58594 17.08203,-13.58594 z"
       style="fill:#004077;fill-opacity:1;fill-rule:nonzero;stroke:none" />
    <path
       id="path58"
       d="m -16.663224,457.32253 c -8.53094,0 -8.53125,6.2339 -8.53125,12.7774 0,6.4735 3.1e-4,12.7715 8.53125,12.7715 8.5265704,0 8.5253904,-6.298 8.5253904,-12.7715 0,-6.5435 0.001,-12.7774 -8.5253904,-12.7774 z m 153.089844,0 c -8.52657,0 -8.52734,6.2339 -8.52734,12.7774 0,6.4735 7.7e-4,12.7715 8.52734,12.7715 8.53532,0 8.53516,-6.298 8.53516,-12.7715 0,-6.5435 1.6e-4,-12.7774 -8.53516,-12.7774 z m 207.93946,0 c -8.53094,0 -8.5293,6.2339 -8.5293,12.7774 0,6.4735 -0.002,12.7715 8.5293,12.7715 8.52657,0 8.52734,-6.298 8.52734,-12.7715 0,-6.5435 -7.7e-4,-12.7774 -8.52734,-12.7774 z m 51.00976,0 c -8.53094,0 -8.53125,6.2339 -8.53125,12.7774 0,6.4735 3.1e-4,12.7715 8.53125,12.7715 8.53094,0 8.53125,-6.298 8.53125,-12.7715 0,-6.5435 -3.1e-4,-12.7774 -8.53125,-12.7774 z m -326.949224,0 c -8.52657,0 -8.52734,6.23 -8.52734,12.7734 0,6.4736 7.7e-4,12.7715 8.52734,12.7715 4.8355,0 7.46875,-2.1176 7.46875,-8.7266 l -5.10156,0 c -0.0699,1.9482 0.0309,5.0313 -2.36719,5.0313 -2.90917,0 -3.28515,-2.738 -3.28515,-9.0762 0,-6.3381 0.37598,-9.0781 3.28515,-9.0781 1.54632,0 2.12696,1.2367 2.12696,4.5215 l 5.0664,0 c 0.2053,-5.3073 -1.91667,-8.2168 -7.19336,-8.2168 z m 190.816414,0 c -8.53531,0 -8.53516,6.23 -8.53516,12.7734 0,6.4736 -1.5e-4,12.7715 8.53516,12.7715 4.82676,0 7.46094,-2.1176 7.46094,-8.7266 l -5.09766,0 c -0.0699,1.9482 0.0304,5.0313 -2.36328,5.0313 -2.91791,0 -3.29297,-2.738 -3.29297,-9.0762 0,-6.3381 0.37506,-9.0781 3.29297,-9.0781 1.5332,0 2.11914,1.2367 2.11914,4.5215 l 5.06641,0 c 0.2053,-5.3073 -1.91324,-8.2168 -7.18555,-8.2168 z m 164.73828,0 c -8.46541,0 -8.77148,6.337 -8.77148,12.5703 0,9.3784 0.9916,12.9785 9.69726,12.9785 2.04865,0 5.58174,-0.5471 6.98828,-0.8223 l 0,-12.5351 -7.98437,0 0,3.7988 2.80859,0 0,5.4824 c -0.78626,0.2752 -1.71266,0.4766 -2.56445,0.4766 -2.95285,0 -3.70313,-1.3627 -3.70313,-9.1074 0,-4.7962 -10e-4,-9.1426 3.22266,-9.1426 2.73445,0 3.11555,2.0217 3.07617,4.3106 l 5.14453,0 c 0.30576,-5.1675 -2.84703,-8.0098 -7.91406,-8.0098 z m -501.861334,0.4082 0,24.7285 5.17188,0 0,-10.0644 3.83593,0 c 6.06295,0 6.88282,-4.4546 6.88282,-7.2676 0,-4.5167 -1.84792,-7.3965 -6.57422,-7.3965 l -9.31641,0 z m 26.33789,0 0,24.7285 5.17774,0 0,-10.2383 1.33203,0 c 3.97936,0 3.69922,2.4973 3.69922,5.4414 0,1.6075 -0.13065,3.2899 0.55078,4.7969 l 5.07031,0 c -0.4805,-1.0265 -0.58398,-5.6872 -0.58398,-7.2598 0,-4.4511 -3.35499,-4.7254 -4.48633,-4.8652 3.35471,-0.6115 4.58984,-2.9795 4.58984,-6.1289 0,-4.2152 -2.26203,-6.4746 -5.78711,-6.4746 l -9.5625,0 z m 55.0546904,0 0,24.7285 8.4257796,0 c 8.84108,0 8.25586,-8.6973 8.25586,-12.5019 0,-7.701 -1.26709,-12.2266 -8.05078,-12.2266 l -8.6308596,0 z m 28.1601596,0 0,17.5391 c 0,4.6607 2.74285,7.5996 8.42578,7.5996 6.3032,0 8.39062,-3.8998 8.39062,-7.5996 l 0,-17.5391 -5.17187,0 0,17.1973 c 0,2.7344 -1.02638,4.246 -3.28906,4.246 -1.88267,0 -3.1836,-1.2015 -3.1836,-4.246 l 0,-17.1973 -5.17187,0 z m 52.99609,0 0,4.1113 5.75195,0 0,20.6172 5.17188,0 0,-20.6172 5.757814,0 0,-4.1113 -16.681644,0 z m 115.203124,0 0,4.1113 5.75782,0 0,20.6172 5.17187,0 0,-20.6172 5.75196,0 0,-4.1113 -16.68165,0 z m 242.02735,0 6.4707,16.166 0,8.5664 5.17188,0 0,-8.5664 6.91797,-16.166 -5.27149,0 -3.93555,10.4433 -3.70507,-10.4433 -5.64844,0 z m -330.7207,0 0,24.7266 5.17773,0 0,-24.7266 -5.17773,0 z m 45.35937,0 0,24.7286 4.82617,0 0,-18.084 0.0742,0 6.74414,18.084 6.82031,0 0,-24.7286 -4.82812,0 0,17.127 -0.0684,0 -6.58008,-17.127 -6.98828,0 z m 69.84766,0 0,24.7286 13.77343,0 0,-3.8008 -8.60156,0 0,-7.2285 7.67578,0 0,-3.8008 -7.67578,0 0,-6.0938 8.33008,0 0,-3.8047 -13.50195,0 z m 51.2207,0 0,24.7286 5.17188,0 0,-11.0293 5.92187,0 0,11.0293 5.17187,0 0,-24.7286 -5.17187,0 0,9.8985 -5.92187,0 0,-9.8985 -5.17188,0 z m 28.22266,0 0,24.7286 4.82617,0 0,-18.084 0.0742,0 6.74414,18.084 6.81836,0 0,-24.7286 -4.83008,0 0,17.127 -0.0664,0 -6.57812,-17.127 -6.98828,0 z m 58.65039,0 0,24.7286 12.91211,0 0,-4.1075 -7.7461,0 0,-20.6211 -5.16601,0 z m -381.142584,3.2891 c 2.90916,0 3.28515,2.738 3.28515,9.0762 0,6.3338 -0.37599,9.0761 -3.28515,9.0761 -2.91354,0 -3.28906,-2.7423 -3.28906,-9.0761 0,-6.3382 0.37552,-9.0762 3.28906,-9.0762 z m 153.089844,0 c 2.9179,0 3.28906,2.738 3.28907,9.0762 0,6.3338 -0.37117,9.0761 -3.28907,9.0761 -2.90916,0 -3.28515,-2.7423 -3.28515,-9.0761 0,-6.3382 0.37599,-9.0762 3.28515,-9.0762 z m 207.93946,0 c 2.90916,0 3.28906,2.738 3.28906,9.0762 0,6.3338 -0.3799,9.0761 -3.28906,9.0761 -2.91354,0 -3.28321,-2.7423 -3.28321,-9.0761 0,-6.3382 0.36967,-9.0762 3.28321,-9.0762 z m 51.00976,0 c 2.90916,0 3.28906,2.738 3.28906,9.0762 0,6.3338 -0.3799,9.0761 -3.28906,9.0761 -2.91354,0 -3.28906,-2.7423 -3.28906,-9.0761 0,-6.3382 0.37552,-9.0762 3.28906,-9.0762 z m -468.083984,0.5137 2.60351,0 c 2.32822,0 2.87891,1.7119 2.87891,3.7344 0,1.6424 -1.06593,3.3203 -2.60352,3.3203 l -2.8789,0 0,-7.0547 z m 26.34375,0 2.29297,0 c 1.64241,0 2.63867,0.8912 2.63867,3.25 0,1.5769 -0.58129,3.6347 -2.63867,3.6347 l -2.29297,0 0,-6.8847 z m 55.0488204,0 2.6718796,0 c 3.59934,0 3.59961,4.0065 3.59961,8.5625 0,6.194 -0.61576,8.5605 -3.76953,8.5605 l -2.5019596,0 0,-17.123 z"
       style="fill:#706f6f;fill-opacity:1;fill-rule:nonzero;stroke:none" />
  </g>
</svg>
